<?xml version="1.0" encoding="UTF-8" standalone="no"?>
<!DOCTYPE svg PUBLIC "-//W3C//DTD SVG 1.1//EN"
 "http://www.w3.org/Graphics/SVG/1.1/DTD/svg11.dtd">
<!-- Generated by graphviz version 2.36.0 (20140111.2315)
 -->
<!-- Title: MS_generic_risk_based Pages: 1 -->
<svg width="452pt" height="353pt"
 viewBox="0.00 0.00 452.00 352.59" xmlns="http://www.w3.org/2000/svg" xmlns:xlink="http://www.w3.org/1999/xlink">
<g id="graph0" class="graph" transform="scale(1 1) rotate(0) translate(4 348.594)">
<title>MS_generic_risk_based</title>
<polygon fill="white" stroke="none" points="-4,4 -4,-348.594 448,-348.594 448,4 -4,4"/>
<!-- g1_1 -->
<g id="node1" class="node"><title>g1_1</title>
<polygon fill="none" stroke="black" points="200,-318 94,-318 94,-260 200,-260 200,-318"/>
<text text-anchor="start" x="138" y="-307" font-family="Times,serif" font-weight="bold" font-size="10.00">goal</text>
<text text-anchor="start" x="102" y="-297" font-family="Times,serif" font-size="10.00"> G1: {hit&#45;spec} Safety</text>
<text text-anchor="start" x="104.5" y="-287" font-family="Times,serif" font-size="10.00"> &#45; Health IT is safe to</text>
<text text-anchor="start" x="108" y="-277" font-family="Times,serif" font-size="10.00"> use in defined care</text>
<text text-anchor="start" x="132" y="-267" font-family="Times,serif" font-size="10.00"> setting</text>
</g>
<!-- context_1 -->
<g id="node2" class="node"><title>context_1</title>
<path fill="none" stroke="black" d="M432,-313C432,-313 342,-313 342,-313 336,-313 330,-307 330,-301 330,-301 330,-277 330,-277 330,-271 336,-265 342,-265 342,-265 432,-265 432,-265 438,-265 444,-271 444,-277 444,-277 444,-301 444,-301 444,-307 438,-313 432,-313"/>
<text text-anchor="start" x="371" y="-302" font-family="Times,serif" font-weight="bold" font-size="10.00">context</text>
<text text-anchor="start" x="347" y="-292" font-family="Times,serif" font-size="10.00"> Con1: Care Setting</text>
<text text-anchor="start" x="338" y="-282" font-family="Times,serif" font-size="10.00"> &#45; Care setting definition</text>
<text text-anchor="start" x="355" y="-272" font-family="Times,serif" font-size="10.00"> and description</text>
</g>
<!-- g1_1&#45;&gt;context_1 -->
<g id="edge1" class="edge"><title>g1_1&#45;&gt;context_1</title>
<path fill="none" stroke="black" stroke-dasharray="5,2" d="M182.687,-318.071C193.684,-325.377 206.266,-332.212 219,-336 258.191,-347.659 271.669,-347.179 311,-336 323.962,-332.316 336.877,-325.721 348.285,-318.615"/>
<polygon fill="black" stroke="black" points="350.235,-321.522 356.691,-313.121 346.405,-315.662 350.235,-321.522"/>
</g>
<!-- context_2 -->
<g id="node3" class="node"><title>context_2</title>
<path fill="none" stroke="black" d="M299.25,-308C299.25,-308 230.75,-308 230.75,-308 224.75,-308 218.75,-302 218.75,-296 218.75,-296 218.75,-282 218.75,-282 218.75,-276 224.75,-270 230.75,-270 230.75,-270 299.25,-270 299.25,-270 305.25,-270 311.25,-276 311.25,-282 311.25,-282 311.25,-296 311.25,-296 311.25,-302 305.25,-308 299.25,-308"/>
<text text-anchor="start" x="249" y="-297" font-family="Times,serif" font-weight="bold" font-size="10.00">context</text>
<text text-anchor="start" x="226.5" y="-287" font-family="Times,serif" font-size="10.00"> Con2: {hit&#45;spec} &#45;</text>
<text text-anchor="start" x="228.5" y="-277" font-family="Times,serif" font-size="10.00"> HIT specification</text>
</g>
<!-- g1_1&#45;&gt;context_2 -->
<g id="edge2" class="edge"><title>g1_1&#45;&gt;context_2</title>
<path fill="none" stroke="black" stroke-dasharray="5,2" d="M200.008,-289C202.807,-289 205.606,-289 208.406,-289"/>
<polygon fill="black" stroke="black" points="208.541,-292.5 218.541,-289 208.541,-285.5 208.541,-292.5"/>
</g>
<!-- strategy_3 -->
<g id="node4" class="node"><title>strategy_3</title>
<polygon fill="none" stroke="black" points="258.454,-224 81.1555,-224 35.5458,-104 212.844,-104 258.454,-224"/>
<text text-anchor="start" x="129.5" y="-187" font-family="Times,serif" font-weight="bold" font-size="10.00">strategy</text>
<text text-anchor="start" x="101" y="-177" font-family="Times,serif" font-size="10.00"> S1: Risk Management</text>
<text text-anchor="start" x="103.5" y="-167" font-family="Times,serif" font-size="10.00"> &#45; Argument based on</text>
<text text-anchor="start" x="93" y="-157" font-family="Times,serif" font-size="10.00"> adherence to ISO 80001&#45;1</text>
<text text-anchor="start" x="95" y="-147" font-family="Times,serif" font-size="10.00"> risk management process</text>
<text text-anchor="start" x="128.5" y="-137" font-family="Times,serif" font-size="10.00"> standard</text>
</g>
<!-- g1_1&#45;&gt;strategy_3 -->
<g id="edge3" class="edge"><title>g1_1&#45;&gt;strategy_3</title>
<path fill="none" stroke="black" d="M147,-259.781C147,-252.052 147,-243.318 147,-234.358"/>
<polygon fill="black" stroke="black" points="150.5,-234.188 147,-224.188 143.5,-234.188 150.5,-234.188"/>
</g>
<!-- justification_4 -->
<g id="node5" class="node"><title>justification_4</title>
<path fill="none" stroke="black" d="M423.25,-188C423.25,-188 288.75,-188 288.75,-188 282.75,-188 276.75,-182 276.75,-176 276.75,-176 276.75,-152 276.75,-152 276.75,-146 282.75,-140 288.75,-140 288.75,-140 423.25,-140 423.25,-140 429.25,-140 435.25,-146 435.25,-152 435.25,-152 435.25,-176 435.25,-176 435.25,-182 429.25,-188 423.25,-188"/>
<text text-anchor="start" x="330.5" y="-177" font-family="Times,serif" font-weight="bold" font-size="10.00">justification</text>
<text text-anchor="start" x="312.5" y="-167" font-family="Times,serif" font-size="10.00"> J1: Effective Process</text>
<text text-anchor="start" x="284.5" y="-157" font-family="Times,serif" font-size="10.00"> &#45; ISO 80001&#45;1 is an internationally</text>
<text text-anchor="start" x="317" y="-147" font-family="Times,serif" font-size="10.00"> published standard</text>
</g>
<!-- strategy_3&#45;&gt;justification_4 -->
<g id="edge4" class="edge"><title>strategy_3&#45;&gt;justification_4</title>
<path fill="none" stroke="black" stroke-dasharray="5,2" d="M235.988,-164C246.067,-164 256.146,-164 266.226,-164"/>
<polygon fill="black" stroke="black" points="266.305,-167.5 276.305,-164 266.305,-160.5 266.305,-167.5"/>
</g>
<!-- away_goal_5 -->
<g id="node6" class="node"><title>away_goal_5</title>
<polygon fill="none" stroke="blue" points="138.25,-68 -0.25,-68 -0.25,-0 138.25,-0 138.25,-68"/>
<text text-anchor="start" x="47.5" y="-57" font-family="Times,serif" font-weight="bold" font-size="10.00">away goal</text>
<text text-anchor="start" x="29" y="-47" font-family="Times,serif" font-size="10.00"> G1.1: Residual risk</text>
<text text-anchor="start" x="22.5" y="-37" font-family="Times,serif" font-size="10.00"> &#45; risk to node {node1}</text>
<text text-anchor="start" x="18" y="-27" font-family="Times,serif" font-size="10.00"> of {hit&#45;spec} is tolerated</text>
<text text-anchor="start" x="7.5" y="-7" font-family="Times,serif" font-size="10.00">[ MS_residual_risk1_g1_1_2 ]</text>
</g>
<!-- strategy_3&#45;&gt;away_goal_5 -->
<g id="edge5" class="edge"><title>strategy_3&#45;&gt;away_goal_5</title>
<path fill="none" stroke="black" d="M110.968,-103.871C105.399,-94.7309 99.7477,-85.4577 94.4735,-76.8027"/>
<polygon fill="black" stroke="black" points="97.3254,-74.7567 89.1329,-68.0386 91.3478,-78.3993 97.3254,-74.7567"/>
</g>
<!-- away_goal_6 -->
<g id="node7" class="node"><title>away_goal_6</title>
<polygon fill="none" stroke="blue" points="295.25,-68 156.75,-68 156.75,-0 295.25,-0 295.25,-68"/>
<text text-anchor="start" x="204.5" y="-57" font-family="Times,serif" font-weight="bold" font-size="10.00">away goal</text>
<text text-anchor="start" x="186" y="-47" font-family="Times,serif" font-size="10.00"> G1.1: Residual risk</text>
<text text-anchor="start" x="179.5" y="-37" font-family="Times,serif" font-size="10.00"> &#45; risk to node {node2}</text>
<text text-anchor="start" x="175" y="-27" font-family="Times,serif" font-size="10.00"> of {hit&#45;spec} is tolerated</text>
<text text-anchor="start" x="164.5" y="-7" font-family="Times,serif" font-size="10.00">[ MS_residual_risk1_g1_1_3 ]</text>
</g>
<!-- strategy_3&#45;&gt;away_goal_6 -->
<g id="edge6" class="edge"><title>strategy_3&#45;&gt;away_goal_6</title>
<path fill="none" stroke="black" d="M183.494,-103.871C189.135,-94.7309 194.858,-85.4577 200.2,-76.8027"/>
<polygon fill="black" stroke="black" points="203.335,-78.3866 205.609,-68.0386 197.378,-74.7101 203.335,-78.3866"/>
</g>
</g>
</svg>
