<?xml version="1.0" encoding="UTF-8" standalone="no"?>
<!DOCTYPE svg PUBLIC "-//W3C//DTD SVG 1.1//EN"
 "http://www.w3.org/Graphics/SVG/1.1/DTD/svg11.dtd">
<!-- Generated by graphviz version 2.36.0 (20140111.2315)
 -->
<!-- Title: MS_residual_risk1 Pages: 1 -->
<svg width="506pt" height="404pt"
 viewBox="0.00 0.00 506.00 404.39" xmlns="http://www.w3.org/2000/svg" xmlns:xlink="http://www.w3.org/1999/xlink">
<g id="graph0" class="graph" transform="scale(1 1) rotate(0) translate(4 400.385)">
<title>MS_residual_risk1</title>
<polygon fill="white" stroke="none" points="-4,4 -4,-400.385 502,-400.385 502,4 -4,4"/>
<!-- g1_1_3 -->
<g id="node1" class="node"><title>g1_1_3</title>
<polygon fill="none" stroke="black" points="212,-356 94,-356 94,-308 212,-308 212,-356"/>
<text text-anchor="start" x="144" y="-345" font-family="Times,serif" font-weight="bold" font-size="10.00">goal</text>
<text text-anchor="start" x="113" y="-335" font-family="Times,serif" font-size="10.00"> G1.1: Residual risk</text>
<text text-anchor="start" x="106.5" y="-325" font-family="Times,serif" font-size="10.00"> &#45; risk to node {node2}</text>
<text text-anchor="start" x="102" y="-315" font-family="Times,serif" font-size="10.00"> of {hit&#45;spec} is tolerated</text>
</g>
<!-- context_1 -->
<g id="node2" class="node"><title>context_1</title>
<path fill="none" stroke="black" d="M486,-361C486,-361 388,-361 388,-361 382,-361 376,-355 376,-349 376,-349 376,-315 376,-315 376,-309 382,-303 388,-303 388,-303 486,-303 486,-303 492,-303 498,-309 498,-315 498,-315 498,-349 498,-349 498,-355 492,-361 486,-361"/>
<text text-anchor="start" x="421" y="-350" font-family="Times,serif" font-weight="bold" font-size="10.00">context</text>
<text text-anchor="start" x="396.5" y="-340" font-family="Times,serif" font-size="10.00"> Con3: Risk Criteria</text>
<text text-anchor="start" x="384" y="-330" font-family="Times,serif" font-size="10.00"> &#45; Criteria used to classify,</text>
<text text-anchor="start" x="396.5" y="-320" font-family="Times,serif" font-size="10.00"> evaluate and accept</text>
<text text-anchor="start" x="428" y="-310" font-family="Times,serif" font-size="10.00"> risk</text>
</g>
<!-- g1_1_3&#45;&gt;context_1 -->
<g id="edge1" class="edge"><title>g1_1_3&#45;&gt;context_1</title>
<path fill="none" stroke="black" stroke-dasharray="5,2" d="M180.135,-356.185C194.017,-366.946 211.799,-378.43 230,-384 284.398,-400.648 303.504,-400.326 358,-384 370.411,-380.282 382.677,-373.916 393.708,-366.887"/>
<polygon fill="black" stroke="black" points="395.912,-369.622 402.268,-361.146 392.014,-363.809 395.912,-369.622"/>
</g>
<!-- context_2 -->
<g id="node3" class="node"><title>context_2</title>
<path fill="none" stroke="black" d="M346,-366C346,-366 242,-366 242,-366 236,-366 230,-360 230,-354 230,-354 230,-310 230,-310 230,-304 236,-298 242,-298 242,-298 346,-298 346,-298 352,-298 358,-304 358,-310 358,-310 358,-354 358,-354 358,-360 352,-366 346,-366"/>
<text text-anchor="start" x="278" y="-355" font-family="Times,serif" font-weight="bold" font-size="10.00">context</text>
<text text-anchor="start" x="249.5" y="-345" font-family="Times,serif" font-size="10.00"> Con4: Tolerable Risk</text>
<text text-anchor="start" x="247.5" y="-335" font-family="Times,serif" font-size="10.00"> &#45; Risk meeting criteria</text>
<text text-anchor="start" x="238" y="-325" font-family="Times,serif" font-size="10.00"> (acceptable) or outweighed</text>
<text text-anchor="start" x="256.5" y="-315" font-family="Times,serif" font-size="10.00"> by clinical benefit</text>
<text text-anchor="start" x="271.5" y="-305" font-family="Times,serif" font-size="10.00"> (accepted)</text>
</g>
<!-- g1_1_3&#45;&gt;context_2 -->
<g id="edge2" class="edge"><title>g1_1_3&#45;&gt;context_2</title>
<path fill="none" stroke="black" stroke-dasharray="5,2" d="M212.209,-332C214.68,-332 217.151,-332 219.622,-332"/>
<polygon fill="black" stroke="black" points="219.781,-335.5 229.781,-332 219.781,-328.5 219.781,-335.5"/>
</g>
<!-- strategy_3 -->
<g id="node4" class="node"><title>strategy_3</title>
<polygon fill="none" stroke="black" points="235.411,-262 104.314,-262 70.5892,-202 201.686,-202 235.411,-262"/>
<text text-anchor="start" x="135.5" y="-240" font-family="Times,serif" font-weight="bold" font-size="10.00">strategy</text>
<text text-anchor="start" x="113" y="-230" font-family="Times,serif" font-size="10.00"> for every identified</text>
<text text-anchor="start" x="138" y="-220" font-family="Times,serif" font-size="10.00"> hazard</text>
</g>
<!-- g1_1_3&#45;&gt;strategy_3 -->
<g id="edge3" class="edge"><title>g1_1_3&#45;&gt;strategy_3</title>
<path fill="none" stroke="black" d="M153,-307.775C153,-297.181 153,-284.34 153,-272.31"/>
<polygon fill="black" stroke="black" points="156.5,-272.024 153,-262.024 149.5,-272.024 156.5,-272.024"/>
</g>
<!-- g1_1_1_6 -->
<g id="node5" class="node"><title>g1_1_1_6</title>
<polygon fill="none" stroke="black" points="139,-166 15,-166 15,-118 139,-118 139,-166"/>
<text text-anchor="start" x="68" y="-155" font-family="Times,serif" font-weight="bold" font-size="10.00">goal</text>
<text text-anchor="start" x="23" y="-145" font-family="Times,serif" font-size="10.00"> Risk of hazard {a&#45;hazard}</text>
<text text-anchor="start" x="31" y="-135" font-family="Times,serif" font-size="10.00"> is acceptable/accepted</text>
<text text-anchor="start" x="42.5" y="-125" font-family="Times,serif" font-size="10.00"> in node {node2}</text>
</g>
<!-- strategy_3&#45;&gt;g1_1_1_6 -->
<g id="edge4" class="edge"><title>strategy_3&#45;&gt;g1_1_1_6</title>
<path fill="none" stroke="black" d="M127.693,-201.697C119.945,-192.726 111.401,-182.833 103.571,-173.767"/>
<polygon fill="black" stroke="black" points="106.097,-171.337 96.9122,-166.056 100.8,-175.912 106.097,-171.337"/>
</g>
<!-- g1_1_1_7 -->
<g id="node7" class="node"><title>g1_1_1_7</title>
<polygon fill="none" stroke="black" points="291,-166 167,-166 167,-118 291,-118 291,-166"/>
<text text-anchor="start" x="220" y="-155" font-family="Times,serif" font-weight="bold" font-size="10.00">goal</text>
<text text-anchor="start" x="175" y="-145" font-family="Times,serif" font-size="10.00"> Risk of hazard {b&#45;hazard}</text>
<text text-anchor="start" x="183" y="-135" font-family="Times,serif" font-size="10.00"> is acceptable/accepted</text>
<text text-anchor="start" x="194.5" y="-125" font-family="Times,serif" font-size="10.00"> in node {node2}</text>
</g>
<!-- strategy_3&#45;&gt;g1_1_1_7 -->
<g id="edge6" class="edge"><title>strategy_3&#45;&gt;g1_1_1_7</title>
<path fill="none" stroke="black" d="M178.307,-201.697C186.055,-192.726 194.599,-182.833 202.429,-173.767"/>
<polygon fill="black" stroke="black" points="205.2,-175.912 209.088,-166.056 199.903,-171.337 205.2,-175.912"/>
</g>
<!-- evidence_4 -->
<g id="node6" class="node"><title>evidence_4</title>
<ellipse fill="none" stroke="blue" cx="72" cy="-41" rx="72.1874" ry="41.0244"/>
<text text-anchor="start" x="48" y="-59" font-family="Times,serif" font-weight="bold" font-size="10.00">hazard_log</text>
<text text-anchor="start" x="30" y="-49" font-family="Times,serif" font-size="10.00"> {node2} Hazard log</text>
<text text-anchor="start" x="29" y="-39" font-family="Times,serif" font-size="10.00"> identifies {a&#45;hazard}</text>
<text text-anchor="start" x="39.5" y="-29" font-family="Times,serif" font-size="10.00"> risk assessment</text>
<text text-anchor="start" x="31" y="-19" font-family="Times,serif" font-size="10.00">pending xref: 10003</text>
</g>
<!-- g1_1_1_6&#45;&gt;evidence_4 -->
<g id="edge5" class="edge"><title>g1_1_1_6&#45;&gt;evidence_4</title>
<path fill="none" stroke="black" d="M75.8277,-117.789C75.4376,-110.065 74.9868,-101.139 74.5345,-92.183"/>
<polygon fill="black" stroke="black" points="78.0264,-91.9317 74.0263,-82.121 71.0353,-92.2849 78.0264,-91.9317"/>
</g>
<!-- evidence_5 -->
<g id="node8" class="node"><title>evidence_5</title>
<ellipse fill="none" stroke="blue" cx="235" cy="-41" rx="72.2493" ry="41.0244"/>
<text text-anchor="start" x="211" y="-59" font-family="Times,serif" font-weight="bold" font-size="10.00">hazard_log</text>
<text text-anchor="start" x="193" y="-49" font-family="Times,serif" font-size="10.00"> {node2} Hazard log</text>
<text text-anchor="start" x="191.5" y="-39" font-family="Times,serif" font-size="10.00"> identifies {b&#45;hazard}</text>
<text text-anchor="start" x="202.5" y="-29" font-family="Times,serif" font-size="10.00"> risk assessment</text>
<text text-anchor="start" x="194" y="-19" font-family="Times,serif" font-size="10.00">pending xref: 10004</text>
</g>
<!-- g1_1_1_7&#45;&gt;evidence_5 -->
<g id="edge7" class="edge"><title>g1_1_1_7&#45;&gt;evidence_5</title>
<path fill="none" stroke="black" d="M230.407,-117.789C230.875,-110.065 231.416,-101.139 231.959,-92.183"/>
<polygon fill="black" stroke="black" points="235.457,-92.3145 232.568,-82.121 228.47,-91.8909 235.457,-92.3145"/>
</g>
</g>
</svg>
