<?xml version="1.0" encoding="UTF-8" standalone="no"?>
<!DOCTYPE svg PUBLIC "-//W3C//DTD SVG 1.1//EN"
 "http://www.w3.org/Graphics/SVG/1.1/DTD/svg11.dtd">
<!-- Generated by graphviz version 2.36.0 (20140111.2315)
 -->
<!-- Title: application_plane_process_threats Pages: 1 -->
<svg width="659pt" height="344pt"
 viewBox="0.00 0.00 659.00 344.00" xmlns="http://www.w3.org/2000/svg" xmlns:xlink="http://www.w3.org/1999/xlink">
<g id="graph0" class="graph" transform="scale(1 1) rotate(0) translate(4 340)">
<title>application_plane_process_threats</title>
<polygon fill="white" stroke="none" points="-4,4 -4,-340 655,-340 655,4 -4,4"/>
<!-- g0_26 -->
<g id="node1" class="node"><title>g0_26</title>
<polygon fill="none" stroke="black" points="486,-336 330,-336 330,-288 486,-288 486,-336"/>
<text text-anchor="start" x="399" y="-325" font-family="Times,serif" font-weight="bold" font-size="10.00">goal</text>
<text text-anchor="start" x="365" y="-315" font-family="Times,serif" font-size="10.00"> Threats on {P2} will</text>
<text text-anchor="start" x="353.5" y="-305" font-family="Times,serif" font-size="10.00"> not affect the performance</text>
<text text-anchor="start" x="338" y="-295" font-family="Times,serif" font-size="10.00"> or consistency of communications</text>
</g>
<!-- context_1 -->
<g id="node2" class="node"><title>context_1</title>
<path fill="none" stroke="black" d="M586,-331C586,-331 516,-331 516,-331 510,-331 504,-325 504,-319 504,-319 504,-305 504,-305 504,-299 510,-293 516,-293 516,-293 586,-293 586,-293 592,-293 598,-299 598,-305 598,-305 598,-319 598,-319 598,-325 592,-331 586,-331"/>
<text text-anchor="start" x="535" y="-320" font-family="Times,serif" font-weight="bold" font-size="10.00">context</text>
<text text-anchor="start" x="512" y="-310" font-family="Times,serif" font-size="10.00"> Defined threats for</text>
<text text-anchor="start" x="539.5" y="-300" font-family="Times,serif" font-size="10.00"> {P2}</text>
</g>
<!-- g0_26&#45;&gt;context_1 -->
<g id="edge1" class="edge"><title>g0_26&#45;&gt;context_1</title>
<path fill="none" stroke="black" stroke-dasharray="5,2" d="M486.203,-312C488.695,-312 491.186,-312 493.678,-312"/>
<polygon fill="black" stroke="black" points="493.921,-315.5 503.921,-312 493.921,-308.5 493.921,-315.5"/>
</g>
<!-- strategy_2 -->
<g id="node3" class="node"><title>strategy_2</title>
<polygon fill="none" stroke="black" points="426.289,-252 254.025,-252 209.711,-192 381.975,-192 426.289,-252"/>
<text text-anchor="start" x="300.5" y="-230" font-family="Times,serif" font-weight="bold" font-size="10.00">strategy</text>
<text text-anchor="start" x="265.5" y="-220" font-family="Times,serif" font-size="10.00"> argument over mitigation</text>
<text text-anchor="start" x="277.5" y="-210" font-family="Times,serif" font-size="10.00"> of identified threats</text>
</g>
<!-- g0_26&#45;&gt;strategy_2 -->
<g id="edge2" class="edge"><title>g0_26&#45;&gt;strategy_2</title>
<path fill="none" stroke="black" d="M384.354,-287.879C375.472,-279.195 365.146,-269.098 355.323,-259.493"/>
<polygon fill="black" stroke="black" points="357.538,-256.765 347.941,-252.276 352.645,-261.77 357.538,-256.765"/>
</g>
<!-- g2_69 -->
<g id="node10" class="node"><title>g2_69</title>
<polygon fill="none" stroke="black" points="551.25,-241 444.75,-241 444.75,-203 551.25,-203 551.25,-241"/>
<text text-anchor="start" x="489" y="-230" font-family="Times,serif" font-weight="bold" font-size="10.00">goal</text>
<text text-anchor="start" x="454" y="-220" font-family="Times,serif" font-size="10.00"> The identified threats</text>
<text text-anchor="start" x="452.5" y="-210" font-family="Times,serif" font-size="10.00"> for {P2} are complete</text>
</g>
<!-- g0_26&#45;&gt;g2_69 -->
<g id="edge9" class="edge"><title>g0_26&#45;&gt;g2_69</title>
<path fill="none" stroke="black" d="M431.646,-287.879C444.098,-275.704 459.389,-260.753 472.152,-248.273"/>
<polygon fill="black" stroke="black" points="474.632,-250.744 479.335,-241.25 469.738,-245.739 474.632,-250.744"/>
</g>
<!-- g1_67 -->
<g id="node4" class="node"><title>g1_67</title>
<polygon fill="none" stroke="black" points="284.25,-156 181.75,-156 181.75,-118 284.25,-118 284.25,-156"/>
<text text-anchor="start" x="224" y="-145" font-family="Times,serif" font-weight="bold" font-size="10.00">goal</text>
<text text-anchor="start" x="192.5" y="-135" font-family="Times,serif" font-size="10.00"> {Technical failure}</text>
<text text-anchor="start" x="189.5" y="-125" font-family="Times,serif" font-size="10.00"> is mitigated for {P2}</text>
</g>
<!-- strategy_2&#45;&gt;g1_67 -->
<g id="edge3" class="edge"><title>strategy_2&#45;&gt;g1_67</title>
<path fill="none" stroke="black" d="M288.271,-191.971C278.601,-182.528 267.957,-172.135 258.614,-163.012"/>
<polygon fill="black" stroke="black" points="261.044,-160.492 251.444,-156.01 256.153,-165.5 261.044,-160.492"/>
</g>
<!-- g1_68 -->
<g id="node7" class="node"><title>g1_68</title>
<polygon fill="none" stroke="black" points="458.25,-156 349.75,-156 349.75,-118 458.25,-118 458.25,-156"/>
<text text-anchor="start" x="395" y="-145" font-family="Times,serif" font-weight="bold" font-size="10.00">goal</text>
<text text-anchor="start" x="357.5" y="-135" font-family="Times,serif" font-size="10.00"> {Unauthorised action}</text>
<text text-anchor="start" x="360.5" y="-125" font-family="Times,serif" font-size="10.00"> is mitigated for {P2}</text>
</g>
<!-- strategy_2&#45;&gt;g1_68 -->
<g id="edge6" class="edge"><title>strategy_2&#45;&gt;g1_68</title>
<path fill="none" stroke="black" d="M348.079,-191.971C357.863,-182.528 368.631,-172.135 378.084,-163.012"/>
<polygon fill="black" stroke="black" points="380.574,-165.473 385.339,-156.01 375.713,-160.436 380.574,-165.473"/>
</g>
<!-- evidence_3 -->
<g id="node5" class="node"><title>evidence_3</title>
<ellipse fill="none" stroke="blue" cx="69" cy="-41" rx="68.9457" ry="41.0244"/>
<text text-anchor="start" x="48.5" y="-59" font-family="Times,serif" font-weight="bold" font-size="10.00">unknown</text>
<text text-anchor="start" x="28.5" y="-49" font-family="Times,serif" font-size="10.00"> {Technical failure}</text>
<text text-anchor="start" x="30.5" y="-39" font-family="Times,serif" font-size="10.00"> specific mitigation</text>
<text text-anchor="start" x="28" y="-19" font-family="Times,serif" font-size="10.00">pending xref: 10026</text>
</g>
<!-- g1_67&#45;&gt;evidence_3 -->
<g id="edge4" class="edge"><title>g1_67&#45;&gt;evidence_3</title>
<path fill="none" stroke="black" d="M201.379,-117.876C180.231,-105.754 151.782,-89.4485 126.678,-75.0595"/>
<polygon fill="black" stroke="black" points="128.372,-71.9961 117.956,-70.0599 124.891,-78.0693 128.372,-71.9961"/>
</g>
<!-- evidence_4 -->
<g id="node6" class="node"><title>evidence_4</title>
<ellipse fill="none" stroke="blue" cx="233" cy="-41" rx="76.0518" ry="33.8824"/>
<text text-anchor="start" x="212.5" y="-54" font-family="Times,serif" font-weight="bold" font-size="10.00">unknown</text>
<text text-anchor="start" x="187" y="-44" font-family="Times,serif" font-size="10.00"> Evidence that controls</text>
<text text-anchor="start" x="208.5" y="-34" font-family="Times,serif" font-size="10.00"> are in place</text>
<text text-anchor="start" x="192" y="-24" font-family="Times,serif" font-size="10.00">pending xref: 10027</text>
</g>
<!-- g1_67&#45;&gt;evidence_4 -->
<g id="edge5" class="edge"><title>g1_67&#45;&gt;evidence_4</title>
<path fill="none" stroke="black" d="M233,-117.876C233,-108.645 233,-96.9869 233,-85.5971"/>
<polygon fill="black" stroke="black" points="236.5,-85.2897 233,-75.2897 229.5,-85.2897 236.5,-85.2897"/>
</g>
<!-- evidence_5 -->
<g id="node8" class="node"><title>evidence_5</title>
<ellipse fill="none" stroke="blue" cx="404" cy="-41" rx="77.112" ry="41.0244"/>
<text text-anchor="start" x="383.5" y="-59" font-family="Times,serif" font-weight="bold" font-size="10.00">unknown</text>
<text text-anchor="start" x="357.5" y="-49" font-family="Times,serif" font-size="10.00"> {Unauthorised action}</text>
<text text-anchor="start" x="365.5" y="-39" font-family="Times,serif" font-size="10.00"> specific mitigation</text>
<text text-anchor="start" x="363" y="-19" font-family="Times,serif" font-size="10.00">pending xref: 10028</text>
</g>
<!-- g1_68&#45;&gt;evidence_5 -->
<g id="edge7" class="edge"><title>g1_68&#45;&gt;evidence_5</title>
<path fill="none" stroke="black" d="M404,-117.876C404,-110.511 404,-101.602 404,-92.5162"/>
<polygon fill="black" stroke="black" points="407.5,-92.2564 404,-82.2565 400.5,-92.2565 407.5,-92.2564"/>
</g>
<!-- evidence_6 -->
<g id="node9" class="node"><title>evidence_6</title>
<ellipse fill="none" stroke="blue" cx="575" cy="-41" rx="76.0518" ry="33.8824"/>
<text text-anchor="start" x="554.5" y="-54" font-family="Times,serif" font-weight="bold" font-size="10.00">unknown</text>
<text text-anchor="start" x="529" y="-44" font-family="Times,serif" font-size="10.00"> Evidence that controls</text>
<text text-anchor="start" x="550.5" y="-34" font-family="Times,serif" font-size="10.00"> are in place</text>
<text text-anchor="start" x="534" y="-24" font-family="Times,serif" font-size="10.00">pending xref: 10029</text>
</g>
<!-- g1_68&#45;&gt;evidence_6 -->
<g id="edge8" class="edge"><title>g1_68&#45;&gt;evidence_6</title>
<path fill="none" stroke="black" d="M436.971,-117.876C460.164,-105.126 491.779,-87.7474 518.899,-72.839"/>
<polygon fill="black" stroke="black" points="520.829,-75.7724 527.906,-67.888 517.457,-69.6382 520.829,-75.7724"/>
</g>
</g>
</svg>
