<?xml version="1.0" encoding="UTF-8" standalone="no"?>
<!DOCTYPE svg PUBLIC "-//W3C//DTD SVG 1.1//EN"
 "http://www.w3.org/Graphics/SVG/1.1/DTD/svg11.dtd">
<!-- Generated by graphviz version 2.36.0 (20140111.2315)
 -->
<!-- Title: application_plane_interface Pages: 1 -->
<svg width="789pt" height="634pt"
 viewBox="0.00 0.00 789.00 634.00" xmlns="http://www.w3.org/2000/svg" xmlns:xlink="http://www.w3.org/1999/xlink">
<g id="graph0" class="graph" transform="scale(1 1) rotate(0) translate(4 630)">
<title>application_plane_interface</title>
<polygon fill="white" stroke="none" points="-4,4 -4,-630 785,-630 785,4 -4,4"/>
<!-- g0_6 -->
<g id="node1" class="node"><title>g0_6</title>
<polygon fill="none" stroke="black" points="415.25,-626 290.75,-626 290.75,-578 415.25,-578 415.25,-626"/>
<text text-anchor="start" x="344" y="-615" font-family="Times,serif" font-weight="bold" font-size="10.00">goal</text>
<text text-anchor="start" x="315" y="-605" font-family="Times,serif" font-size="10.00"> Interactions are as</text>
<text text-anchor="start" x="298.5" y="-595" font-family="Times,serif" font-size="10.00"> defined by the architecture</text>
<text text-anchor="start" x="313.5" y="-585" font-family="Times,serif" font-size="10.00"> spec {iomt_spec1}</text>
</g>
<!-- context_1 -->
<g id="node2" class="node"><title>context_1</title>
<path fill="none" stroke="black" d="M510,-621C510,-621 446,-621 446,-621 440,-621 434,-615 434,-609 434,-609 434,-595 434,-595 434,-589 440,-583 446,-583 446,-583 510,-583 510,-583 516,-583 522,-589 522,-595 522,-595 522,-609 522,-609 522,-615 516,-621 510,-621"/>
<text text-anchor="start" x="462" y="-610" font-family="Times,serif" font-weight="bold" font-size="10.00">context</text>
<text text-anchor="start" x="442" y="-600" font-family="Times,serif" font-size="10.00"> application plane</text>
<text text-anchor="start" x="449.5" y="-590" font-family="Times,serif" font-size="10.00"> | composition</text>
</g>
<!-- g0_6&#45;&gt;context_1 -->
<g id="edge1" class="edge"><title>g0_6&#45;&gt;context_1</title>
<path fill="none" stroke="black" stroke-dasharray="5,2" d="M415.5,-602C418.135,-602 420.769,-602 423.404,-602"/>
<polygon fill="black" stroke="black" points="423.566,-605.5 433.566,-602 423.566,-598.5 423.566,-605.5"/>
</g>
<!-- g1_15 -->
<g id="node3" class="node"><title>g1_15</title>
<polygon fill="none" stroke="black" points="269.25,-537 130.75,-537 130.75,-499 269.25,-499 269.25,-537"/>
<text text-anchor="start" x="191" y="-526" font-family="Times,serif" font-weight="bold" font-size="10.00">goal</text>
<text text-anchor="start" x="155" y="-516" font-family="Times,serif" font-size="10.00"> communication occur</text>
<text text-anchor="start" x="138.5" y="-506" font-family="Times,serif" font-size="10.00"> only over defined connections</text>
</g>
<!-- g0_6&#45;&gt;g1_15 -->
<g id="edge2" class="edge"><title>g0_6&#45;&gt;g1_15</title>
<path fill="none" stroke="black" d="M309.974,-577.94C289.032,-566.716 263.921,-553.258 242.985,-542.038"/>
<polygon fill="black" stroke="black" points="244.459,-538.857 233.991,-537.218 241.152,-545.026 244.459,-538.857"/>
</g>
<!-- g2_18 -->
<g id="node10" class="node"><title>g2_18</title>
<polygon fill="none" stroke="black" points="568,-537 444,-537 444,-499 568,-499 568,-537"/>
<text text-anchor="start" x="497" y="-526" font-family="Times,serif" font-weight="bold" font-size="10.00">goal</text>
<text text-anchor="start" x="457.5" y="-516" font-family="Times,serif" font-size="10.00"> the defined connections</text>
<text text-anchor="start" x="452" y="-506" font-family="Times,serif" font-size="10.00"> are correctly implemented</text>
</g>
<!-- g0_6&#45;&gt;g2_18 -->
<g id="edge9" class="edge"><title>g0_6&#45;&gt;g2_18</title>
<path fill="none" stroke="black" d="M396.026,-577.94C416.968,-566.716 442.079,-553.258 463.015,-542.038"/>
<polygon fill="black" stroke="black" points="464.848,-545.026 472.009,-537.218 461.541,-538.857 464.848,-545.026"/>
</g>
<!-- context_2 -->
<g id="node4" class="node"><title>context_2</title>
<path fill="none" stroke="black" d="M414,-542C414,-542 300,-542 300,-542 294,-542 288,-536 288,-530 288,-530 288,-506 288,-506 288,-500 294,-494 300,-494 300,-494 414,-494 414,-494 420,-494 426,-500 426,-506 426,-506 426,-530 426,-530 426,-536 420,-542 414,-542"/>
<text text-anchor="start" x="341" y="-531" font-family="Times,serif" font-weight="bold" font-size="10.00">context</text>
<text text-anchor="start" x="319" y="-521" font-family="Times,serif" font-size="10.00"> connections are as</text>
<text text-anchor="start" x="296" y="-511" font-family="Times,serif" font-size="10.00"> specified in the {iomt_spec1}</text>
<text text-anchor="start" x="328" y="-501" font-family="Times,serif" font-size="10.00"> system model</text>
</g>
<!-- g1_15&#45;&gt;context_2 -->
<g id="edge3" class="edge"><title>g1_15&#45;&gt;context_2</title>
<path fill="none" stroke="black" stroke-dasharray="5,2" d="M269.301,-518C272.095,-518 274.889,-518 277.683,-518"/>
<polygon fill="black" stroke="black" points="277.8,-521.5 287.8,-518 277.8,-514.5 277.8,-521.5"/>
</g>
<!-- strategy_3 -->
<g id="node5" class="node"><title>strategy_3</title>
<polygon fill="none" stroke="black" points="334.168,-458 120.737,-458 65.8321,-338 279.263,-338 334.168,-458"/>
<text text-anchor="start" x="182.5" y="-421" font-family="Times,serif" font-weight="bold" font-size="10.00">strategy</text>
<text text-anchor="start" x="135" y="-411" font-family="Times,serif" font-size="10.00"> argument over the requirements</text>
<text text-anchor="start" x="151.5" y="-401" font-family="Times,serif" font-size="10.00"> that need to be satisfied</text>
<text text-anchor="start" x="141.5" y="-391" font-family="Times,serif" font-size="10.00"> to guarantee communication</text>
<text text-anchor="start" x="158" y="-381" font-family="Times,serif" font-size="10.00"> will only occur over</text>
<text text-anchor="start" x="158.5" y="-371" font-family="Times,serif" font-size="10.00"> defined connections</text>
</g>
<!-- g1_15&#45;&gt;strategy_3 -->
<g id="edge4" class="edge"><title>g1_15&#45;&gt;strategy_3</title>
<path fill="none" stroke="black" d="M200,-498.821C200,-490.271 200,-479.477 200,-468.17"/>
<polygon fill="black" stroke="black" points="203.5,-468.144 200,-458.144 196.5,-468.144 203.5,-468.144"/>
</g>
<!-- g11_16 -->
<g id="node6" class="node"><title>g11_16</title>
<polygon fill="none" stroke="black" points="138.25,-286 31.75,-286 31.75,-238 138.25,-238 138.25,-286"/>
<text text-anchor="start" x="76" y="-275" font-family="Times,serif" font-weight="bold" font-size="10.00">goal</text>
<text text-anchor="start" x="39.5" y="-265" font-family="Times,serif" font-size="10.00"> specific {availability}</text>
<text text-anchor="start" x="43" y="-255" font-family="Times,serif" font-size="10.00"> of {iomt_spec1} are</text>
<text text-anchor="start" x="67" y="-245" font-family="Times,serif" font-size="10.00"> satisfied</text>
</g>
<!-- strategy_3&#45;&gt;g11_16 -->
<g id="edge5" class="edge"><title>strategy_3&#45;&gt;g11_16</title>
<path fill="none" stroke="black" d="M149.225,-337.836C136.269,-322.74 122.852,-307.106 111.653,-294.057"/>
<polygon fill="black" stroke="black" points="114.159,-291.602 104.99,-286.293 108.847,-296.161 114.159,-291.602"/>
</g>
<!-- g11_17 -->
<g id="node8" class="node"><title>g11_17</title>
<polygon fill="none" stroke="black" points="285.25,-286 184.75,-286 184.75,-238 285.25,-238 285.25,-286"/>
<text text-anchor="start" x="226" y="-275" font-family="Times,serif" font-weight="bold" font-size="10.00">goal</text>
<text text-anchor="start" x="192.5" y="-265" font-family="Times,serif" font-size="10.00"> specific {reliability}</text>
<text text-anchor="start" x="193" y="-255" font-family="Times,serif" font-size="10.00"> of {iomt_spec1} are</text>
<text text-anchor="start" x="217" y="-245" font-family="Times,serif" font-size="10.00"> satisfied</text>
</g>
<!-- strategy_3&#45;&gt;g11_17 -->
<g id="edge7" class="edge"><title>strategy_3&#45;&gt;g11_17</title>
<path fill="none" stroke="black" d="M215.453,-337.836C219.173,-323.594 223.018,-308.874 226.303,-296.297"/>
<polygon fill="black" stroke="black" points="229.775,-296.853 228.916,-286.293 223.002,-295.084 229.775,-296.853"/>
</g>
<!-- evidence_4 -->
<g id="node7" class="node"><title>evidence_4</title>
<ellipse fill="none" stroke="blue" cx="79" cy="-145" rx="79.3553" ry="41.0244"/>
<text text-anchor="start" x="58.5" y="-163" font-family="Times,serif" font-weight="bold" font-size="10.00">unknown</text>
<text text-anchor="start" x="30.5" y="-153" font-family="Times,serif" font-size="10.00"> evidence of satisfaction</text>
<text text-anchor="start" x="45" y="-143" font-family="Times,serif" font-size="10.00"> of {availability}</text>
<text text-anchor="start" x="43.5" y="-133" font-family="Times,serif" font-size="10.00"> on {iomt_spec1}</text>
<text text-anchor="start" x="38" y="-123" font-family="Times,serif" font-size="10.00">pending xref: 10005</text>
</g>
<!-- g11_16&#45;&gt;evidence_4 -->
<g id="edge6" class="edge"><title>g11_16&#45;&gt;evidence_4</title>
<path fill="none" stroke="black" d="M83.7858,-237.728C83.1631,-225.792 82.3789,-210.763 81.6266,-196.343"/>
<polygon fill="black" stroke="black" points="85.1036,-195.809 81.0872,-186.005 78.1131,-196.173 85.1036,-195.809"/>
</g>
<!-- evidence_5 -->
<g id="node9" class="node"><title>evidence_5</title>
<ellipse fill="none" stroke="blue" cx="257" cy="-145" rx="79.3553" ry="41.0244"/>
<text text-anchor="start" x="236.5" y="-163" font-family="Times,serif" font-weight="bold" font-size="10.00">unknown</text>
<text text-anchor="start" x="208.5" y="-153" font-family="Times,serif" font-size="10.00"> evidence of satisfaction</text>
<text text-anchor="start" x="219.5" y="-143" font-family="Times,serif" font-size="10.00"> of {reliability} on</text>
<text text-anchor="start" x="227.5" y="-133" font-family="Times,serif" font-size="10.00"> {iomt_spec1}</text>
<text text-anchor="start" x="216" y="-123" font-family="Times,serif" font-size="10.00">pending xref: 10006</text>
</g>
<!-- g11_17&#45;&gt;evidence_5 -->
<g id="edge8" class="edge"><title>g11_17&#45;&gt;evidence_5</title>
<path fill="none" stroke="black" d="M239.452,-237.728C241.758,-225.676 244.666,-210.471 247.449,-195.924"/>
<polygon fill="black" stroke="black" points="250.906,-196.484 249.347,-186.005 244.03,-195.169 250.906,-196.484"/>
</g>
<!-- context_6 -->
<g id="node11" class="node"><title>context_6</title>
<path fill="none" stroke="black" d="M712,-542C712,-542 598,-542 598,-542 592,-542 586,-536 586,-530 586,-530 586,-506 586,-506 586,-500 592,-494 598,-494 598,-494 712,-494 712,-494 718,-494 724,-500 724,-506 724,-506 724,-530 724,-530 724,-536 718,-542 712,-542"/>
<text text-anchor="start" x="639" y="-531" font-family="Times,serif" font-weight="bold" font-size="10.00">context</text>
<text text-anchor="start" x="612.5" y="-521" font-family="Times,serif" font-size="10.00"> communication is as</text>
<text text-anchor="start" x="594" y="-511" font-family="Times,serif" font-size="10.00"> specified in the {iomt_spec1}</text>
<text text-anchor="start" x="605.5" y="-501" font-family="Times,serif" font-size="10.00"> system model dataflows</text>
</g>
<!-- g2_18&#45;&gt;context_6 -->
<g id="edge10" class="edge"><title>g2_18&#45;&gt;context_6</title>
<path fill="none" stroke="black" stroke-dasharray="5,2" d="M568.277,-518C570.755,-518 573.232,-518 575.709,-518"/>
<polygon fill="black" stroke="black" points="575.893,-521.5 585.893,-518 575.893,-514.5 575.893,-521.5"/>
</g>
<!-- g21_19 -->
<g id="node12" class="node"><title>g21_19</title>
<polygon fill="none" stroke="black" points="515.25,-417 400.75,-417 400.75,-379 515.25,-379 515.25,-417"/>
<text text-anchor="start" x="449" y="-406" font-family="Times,serif" font-weight="bold" font-size="10.00">goal</text>
<text text-anchor="start" x="408.5" y="-396" font-family="Times,serif" font-size="10.00"> all required connections</text>
<text text-anchor="start" x="423" y="-386" font-family="Times,serif" font-size="10.00"> are implemented</text>
</g>
<!-- g2_18&#45;&gt;g21_19 -->
<g id="edge11" class="edge"><title>g2_18&#45;&gt;g21_19</title>
<path fill="none" stroke="black" d="M498.605,-498.821C490.725,-479.449 478.16,-448.56 469.093,-426.271"/>
<polygon fill="black" stroke="black" points="472.335,-424.95 465.324,-417.006 465.85,-427.588 472.335,-424.95"/>
</g>
<!-- g22_21 -->
<g id="node16" class="node"><title>g22_21</title>
<polygon fill="none" stroke="black" points="708,-417 586,-417 586,-379 708,-379 708,-417"/>
<text text-anchor="start" x="638" y="-406" font-family="Times,serif" font-weight="bold" font-size="10.00">goal</text>
<text text-anchor="start" x="594" y="-396" font-family="Times,serif" font-size="10.00"> no additional connections</text>
<text text-anchor="start" x="612" y="-386" font-family="Times,serif" font-size="10.00"> are implemented</text>
</g>
<!-- g2_18&#45;&gt;g22_21 -->
<g id="edge15" class="edge"><title>g2_18&#45;&gt;g22_21</title>
<path fill="none" stroke="black" d="M527.722,-498.821C551.805,-478.667 590.782,-446.048 617.586,-423.616"/>
<polygon fill="black" stroke="black" points="620.062,-426.108 625.484,-417.006 615.569,-420.74 620.062,-426.108"/>
</g>
<!-- strategy_7 -->
<g id="node13" class="node"><title>strategy_7</title>
<polygon fill="none" stroke="black" points="547.119,-302 363.99,-302 316.881,-222 500.01,-222 547.119,-302"/>
<text text-anchor="start" x="414.5" y="-275" font-family="Times,serif" font-weight="bold" font-size="10.00">strategy</text>
<text text-anchor="start" x="376.5" y="-265" font-family="Times,serif" font-size="10.00"> argument over connections</text>
<text text-anchor="start" x="385" y="-255" font-family="Times,serif" font-size="10.00"> specified in the system</text>
<text text-anchor="start" x="418" y="-245" font-family="Times,serif" font-size="10.00"> model</text>
</g>
<!-- g21_19&#45;&gt;strategy_7 -->
<g id="edge12" class="edge"><title>g21_19&#45;&gt;strategy_7</title>
<path fill="none" stroke="black" d="M454.494,-378.928C451.185,-361.877 446.073,-335.531 441.558,-312.261"/>
<polygon fill="black" stroke="black" points="444.941,-311.322 439.601,-302.172 438.069,-312.656 444.941,-311.322"/>
</g>
<!-- g211_20 -->
<g id="node14" class="node"><title>g211_20</title>
<polygon fill="none" stroke="black" points="488.25,-164 375.75,-164 375.75,-126 488.25,-126 488.25,-164"/>
<text text-anchor="start" x="423" y="-153" font-family="Times,serif" font-weight="bold" font-size="10.00">goal</text>
<text text-anchor="start" x="383.5" y="-143" font-family="Times,serif" font-size="10.00"> The {p1p2} connection</text>
<text text-anchor="start" x="400" y="-133" font-family="Times,serif" font-size="10.00"> is implemented</text>
</g>
<!-- strategy_7&#45;&gt;g211_20 -->
<g id="edge13" class="edge"><title>strategy_7&#45;&gt;g211_20</title>
<path fill="none" stroke="black" d="M432,-221.745C432,-206.19 432,-188.647 432,-174.364"/>
<polygon fill="black" stroke="black" points="435.5,-174.165 432,-164.165 428.5,-174.165 435.5,-174.165"/>
</g>
<!-- evidence_8 -->
<g id="node15" class="node"><title>evidence_8</title>
<ellipse fill="none" stroke="blue" cx="432" cy="-34" rx="108.281" ry="33.8824"/>
<text text-anchor="start" x="411.5" y="-47" font-family="Times,serif" font-weight="bold" font-size="10.00">unknown</text>
<text text-anchor="start" x="363.5" y="-37" font-family="Times,serif" font-size="10.00"> Nodes and network configuration</text>
<text text-anchor="start" x="391" y="-17" font-family="Times,serif" font-size="10.00">pending xref: 10007</text>
</g>
<!-- g211_20&#45;&gt;evidence_8 -->
<g id="edge14" class="edge"><title>g211_20&#45;&gt;evidence_8</title>
<path fill="none" stroke="black" d="M432,-125.51C432,-112.532 432,-94.6249 432,-78.1616"/>
<polygon fill="black" stroke="black" points="435.5,-78.1545 432,-68.1545 428.5,-78.1545 435.5,-78.1545"/>
</g>
<!-- evidence_9 -->
<g id="node17" class="node"><title>evidence_9</title>
<ellipse fill="none" stroke="blue" cx="673" cy="-262" rx="108.281" ry="33.8824"/>
<text text-anchor="start" x="652.5" y="-275" font-family="Times,serif" font-weight="bold" font-size="10.00">unknown</text>
<text text-anchor="start" x="604.5" y="-265" font-family="Times,serif" font-size="10.00"> Nodes and network configuration</text>
<text text-anchor="start" x="632" y="-245" font-family="Times,serif" font-size="10.00">pending xref: 10008</text>
</g>
<!-- g22_21&#45;&gt;evidence_9 -->
<g id="edge16" class="edge"><title>g22_21&#45;&gt;evidence_9</title>
<path fill="none" stroke="black" d="M650.506,-378.928C654.125,-360.28 659.9,-330.514 664.693,-305.813"/>
<polygon fill="black" stroke="black" points="668.141,-306.418 666.61,-295.934 661.269,-305.084 668.141,-306.418"/>
</g>
</g>
</svg>
