<?xml version="1.0" encoding="UTF-8" standalone="no"?>
<!DOCTYPE svg PUBLIC "-//W3C//DTD SVG 1.1//EN"
 "http://www.w3.org/Graphics/SVG/1.1/DTD/svg11.dtd">
<!-- Generated by graphviz version 2.36.0 (20140111.2315)
 -->
<!-- Title: application_plane Pages: 1 -->
<svg width="505pt" height="368pt"
 viewBox="0.00 0.00 505.00 368.00" xmlns="http://www.w3.org/2000/svg" xmlns:xlink="http://www.w3.org/1999/xlink">
<g id="graph0" class="graph" transform="scale(1 1) rotate(0) translate(4 364)">
<title>application_plane</title>
<polygon fill="white" stroke="none" points="-4,4 -4,-364 501,-364 501,4 -4,4"/>
<!-- g0_3 -->
<g id="node1" class="node"><title>g0_3</title>
<polygon fill="none" stroke="black" points="295,-345 189,-345 189,-297 295,-297 295,-345"/>
<text text-anchor="start" x="233" y="-334" font-family="Times,serif" font-weight="bold" font-size="10.00">goal</text>
<text text-anchor="start" x="197" y="-324" font-family="Times,serif" font-size="10.00"> The application plane</text>
<text text-anchor="start" x="203" y="-314" font-family="Times,serif" font-size="10.00"> guarantees that the</text>
<text text-anchor="start" x="199.5" y="-304" font-family="Times,serif" font-size="10.00"> {iomt_spec1} is met</text>
</g>
<!-- context_1 -->
<g id="node2" class="node"><title>context_1</title>
<path fill="none" stroke="black" d="M425,-360C425,-360 325,-360 325,-360 319,-360 313,-354 313,-348 313,-348 313,-294 313,-294 313,-288 319,-282 325,-282 325,-282 425,-282 425,-282 431,-282 437,-288 437,-294 437,-294 437,-348 437,-348 437,-354 431,-360 425,-360"/>
<text text-anchor="start" x="359" y="-349" font-family="Times,serif" font-weight="bold" font-size="10.00">context</text>
<text text-anchor="start" x="324" y="-339" font-family="Times,serif" font-size="10.00"> The IoMT system model</text>
<text text-anchor="start" x="324" y="-329" font-family="Times,serif" font-size="10.00"> describes the application</text>
<text text-anchor="start" x="321" y="-319" font-family="Times,serif" font-size="10.00"> plane and the architecture,</text>
<text text-anchor="start" x="334" y="-309" font-family="Times,serif" font-size="10.00"> properties and local</text>
<text text-anchor="start" x="335.5" y="-299" font-family="Times,serif" font-size="10.00"> specification of the</text>
<text text-anchor="start" x="362.5" y="-289" font-family="Times,serif" font-size="10.00"> plane</text>
</g>
<!-- g0_3&#45;&gt;context_1 -->
<g id="edge1" class="edge"><title>g0_3&#45;&gt;context_1</title>
<path fill="none" stroke="black" stroke-dasharray="5,2" d="M295.252,-321C297.705,-321 300.158,-321 302.612,-321"/>
<polygon fill="black" stroke="black" points="302.697,-324.5 312.697,-321 302.697,-317.5 302.697,-324.5"/>
</g>
<!-- away_goal_2 -->
<g id="node3" class="node"><title>away_goal_2</title>
<polygon fill="none" stroke="blue" points="164,-246 0,-246 0,-178 164,-178 164,-246"/>
<text text-anchor="start" x="60.5" y="-235" font-family="Times,serif" font-weight="bold" font-size="10.00">away goal</text>
<text text-anchor="start" x="44" y="-225" font-family="Times,serif" font-size="10.00"> Interactions are as</text>
<text text-anchor="start" x="27.5" y="-215" font-family="Times,serif" font-size="10.00"> defined by the architecture</text>
<text text-anchor="start" x="42.5" y="-205" font-family="Times,serif" font-size="10.00"> spec {iomt_spec1}</text>
<text text-anchor="start" x="8" y="-185" font-family="Times,serif" font-size="10.00">[ application_plane_interface_g0_6 ]</text>
</g>
<!-- g0_3&#45;&gt;away_goal_2 -->
<g id="edge2" class="edge"><title>g0_3&#45;&gt;away_goal_2</title>
<path fill="none" stroke="black" d="M207.282,-296.783C187.642,-283.648 162.571,-266.882 140.025,-251.804"/>
<polygon fill="black" stroke="black" points="141.782,-248.769 131.524,-246.119 137.891,-254.588 141.782,-248.769"/>
</g>
<!-- g1_7 -->
<g id="node4" class="node"><title>g1_7</title>
<polygon fill="none" stroke="black" points="302,-241 182,-241 182,-183 302,-183 302,-241"/>
<text text-anchor="start" x="233" y="-230" font-family="Times,serif" font-weight="bold" font-size="10.00">goal</text>
<text text-anchor="start" x="190" y="-220" font-family="Times,serif" font-size="10.00"> Compositional behaviour</text>
<text text-anchor="start" x="193.5" y="-210" font-family="Times,serif" font-size="10.00"> of separate components</text>
<text text-anchor="start" x="197.5" y="-200" font-family="Times,serif" font-size="10.00"> demonstrated to meet</text>
<text text-anchor="start" x="197" y="-190" font-family="Times,serif" font-size="10.00"> the local specification</text>
</g>
<!-- g0_3&#45;&gt;g1_7 -->
<g id="edge3" class="edge"><title>g0_3&#45;&gt;g1_7</title>
<path fill="none" stroke="black" d="M242,-296.783C242,-283.499 242,-266.501 242,-251.291"/>
<polygon fill="black" stroke="black" points="245.5,-251.115 242,-241.115 238.5,-251.115 245.5,-251.115"/>
</g>
<!-- g2_10 -->
<g id="node8" class="node"><title>g2_10</title>
<polygon fill="none" stroke="black" points="470,-236 330,-236 330,-188 470,-188 470,-236"/>
<text text-anchor="start" x="391" y="-225" font-family="Times,serif" font-weight="bold" font-size="10.00">goal</text>
<text text-anchor="start" x="348" y="-215" font-family="Times,serif" font-size="10.00"> Compositional behaviour</text>
<text text-anchor="start" x="338" y="-205" font-family="Times,serif" font-size="10.00"> of compositions demonstrated</text>
<text text-anchor="start" x="339" y="-195" font-family="Times,serif" font-size="10.00"> to meet the local specification</text>
</g>
<!-- g0_3&#45;&gt;g2_10 -->
<g id="edge7" class="edge"><title>g0_3&#45;&gt;g2_10</title>
<path fill="none" stroke="black" d="M276.284,-296.783C300.094,-280.658 331.985,-259.061 357.424,-241.833"/>
<polygon fill="black" stroke="black" points="359.466,-244.677 365.783,-236.172 355.541,-238.881 359.466,-244.677"/>
</g>
<!-- strategy_3 -->
<g id="node5" class="node"><title>strategy_3</title>
<polygon fill="none" stroke="black" points="295.108,-131 201.08,-131 176.892,-95 270.92,-95 295.108,-131"/>
<text text-anchor="start" x="218.5" y="-116" font-family="Times,serif" font-weight="bold" font-size="10.00">strategy</text>
<text text-anchor="start" x="202.5" y="-106" font-family="Times,serif" font-size="10.00"> no. of processes</text>
</g>
<!-- g1_7&#45;&gt;strategy_3 -->
<g id="edge4" class="edge"><title>g1_7&#45;&gt;strategy_3</title>
<path fill="none" stroke="black" d="M240.265,-182.944C239.453,-169.83 238.491,-154.275 237.686,-141.262"/>
<polygon fill="black" stroke="black" points="241.165,-140.803 237.054,-131.038 234.178,-141.235 241.165,-140.803"/>
</g>
<!-- away_goal_4 -->
<g id="node6" class="node"><title>away_goal_4</title>
<polygon fill="none" stroke="blue" points="227.25,-48 68.75,-48 68.75,-0 227.25,-0 227.25,-48"/>
<text text-anchor="start" x="126.5" y="-37" font-family="Times,serif" font-weight="bold" font-size="10.00">away goal</text>
<text text-anchor="start" x="102" y="-27" font-family="Times,serif" font-size="10.00"> process {P1} enforces</text>
<text text-anchor="start" x="120.5" y="-17" font-family="Times,serif" font-size="10.00"> its local spec</text>
<text text-anchor="start" x="76.5" y="-7" font-family="Times,serif" font-size="10.00">[ application_plane_process_g0_8 ]</text>
</g>
<!-- strategy_3&#45;&gt;away_goal_4 -->
<g id="edge5" class="edge"><title>strategy_3&#45;&gt;away_goal_4</title>
<path fill="none" stroke="black" d="M218.614,-94.8116C207.203,-83.5302 191.967,-68.467 178.568,-55.2207"/>
<polygon fill="black" stroke="black" points="180.922,-52.6258 171.35,-48.0842 176,-57.6038 180.922,-52.6258"/>
</g>
<!-- away_goal_5 -->
<g id="node7" class="node"><title>away_goal_5</title>
<polygon fill="none" stroke="blue" points="404.25,-48 245.75,-48 245.75,-0 404.25,-0 404.25,-48"/>
<text text-anchor="start" x="303.5" y="-37" font-family="Times,serif" font-weight="bold" font-size="10.00">away goal</text>
<text text-anchor="start" x="279" y="-27" font-family="Times,serif" font-size="10.00"> process {P2} enforces</text>
<text text-anchor="start" x="297.5" y="-17" font-family="Times,serif" font-size="10.00"> its local spec</text>
<text text-anchor="start" x="253.5" y="-7" font-family="Times,serif" font-size="10.00">[ application_plane_process_g0_9 ]</text>
</g>
<!-- strategy_3&#45;&gt;away_goal_5 -->
<g id="edge6" class="edge"><title>strategy_3&#45;&gt;away_goal_5</title>
<path fill="none" stroke="black" d="M253.584,-94.8116C265.124,-83.5302 280.534,-68.467 294.085,-55.2207"/>
<polygon fill="black" stroke="black" points="296.681,-57.5773 301.385,-48.0842 291.788,-52.5717 296.681,-57.5773"/>
</g>
<!-- away_goal_6 -->
<g id="node9" class="node"><title>away_goal_6</title>
<polygon fill="none" stroke="blue" points="497,-142 313,-142 313,-84 497,-84 497,-142"/>
<text text-anchor="start" x="383.5" y="-131" font-family="Times,serif" font-weight="bold" font-size="10.00">away goal</text>
<text text-anchor="start" x="347.5" y="-121" font-family="Times,serif" font-size="10.00"> The composition guarantess</text>
<text text-anchor="start" x="367" y="-111" font-family="Times,serif" font-size="10.00"> that {iomt_spec1}</text>
<text text-anchor="start" x="382.5" y="-101" font-family="Times,serif" font-size="10.00"> is satisfied</text>
<text text-anchor="start" x="321" y="-91" font-family="Times,serif" font-size="10.00">[ application_plane_composition_g0_11 ]</text>
</g>
<!-- g2_10&#45;&gt;away_goal_6 -->
<g id="edge8" class="edge"><title>g2_10&#45;&gt;away_goal_6</title>
<path fill="none" stroke="black" d="M401.21,-187.519C401.756,-176.938 402.414,-164.168 403.028,-152.262"/>
<polygon fill="black" stroke="black" points="406.532,-152.264 403.552,-142.097 399.541,-151.904 406.532,-152.264"/>
</g>
</g>
</svg>
