<?xml version="1.0" encoding="UTF-8" standalone="no"?>
<!DOCTYPE svg PUBLIC "-//W3C//DTD SVG 1.1//EN"
 "http://www.w3.org/Graphics/SVG/1.1/DTD/svg11.dtd">
<!-- Generated by graphviz version 2.36.0 (20140111.2315)
 -->
<!-- Title: application_plane_composition Pages: 1 -->
<svg width="460pt" height="326pt"
 viewBox="0.00 0.00 460.00 326.00" xmlns="http://www.w3.org/2000/svg" xmlns:xlink="http://www.w3.org/1999/xlink">
<g id="graph0" class="graph" transform="scale(1 1) rotate(0) translate(4 322)">
<title>application_plane_composition</title>
<polygon fill="white" stroke="none" points="-4,4 -4,-322 456,-322 456,4 -4,4"/>
<!-- g0_11 -->
<g id="node1" class="node"><title>g0_11</title>
<polygon fill="none" stroke="black" points="311.25,-313 180.75,-313 180.75,-265 311.25,-265 311.25,-313"/>
<text text-anchor="start" x="237" y="-302" font-family="Times,serif" font-weight="bold" font-size="10.00">goal</text>
<text text-anchor="start" x="188.5" y="-292" font-family="Times,serif" font-size="10.00"> The composition guarantess</text>
<text text-anchor="start" x="208" y="-282" font-family="Times,serif" font-size="10.00"> that {iomt_spec1}</text>
<text text-anchor="start" x="223.5" y="-272" font-family="Times,serif" font-size="10.00"> is satisfied</text>
</g>
<!-- context_1 -->
<g id="node2" class="node"><title>context_1</title>
<path fill="none" stroke="black" d="M440,-318C440,-318 342,-318 342,-318 336,-318 330,-312 330,-306 330,-306 330,-272 330,-272 330,-266 336,-260 342,-260 342,-260 440,-260 440,-260 446,-260 452,-266 452,-272 452,-272 452,-306 452,-306 452,-312 446,-318 440,-318"/>
<text text-anchor="start" x="375" y="-307" font-family="Times,serif" font-weight="bold" font-size="10.00">context</text>
<text text-anchor="start" x="351" y="-297" font-family="Times,serif" font-size="10.00"> The composition is</text>
<text text-anchor="start" x="350.5" y="-287" font-family="Times,serif" font-size="10.00"> defined through the</text>
<text text-anchor="start" x="352" y="-277" font-family="Times,serif" font-size="10.00"> local specification,</text>
<text text-anchor="start" x="338" y="-267" font-family="Times,serif" font-size="10.00"> parameters and properties</text>
</g>
<!-- g0_11&#45;&gt;context_1 -->
<g id="edge1" class="edge"><title>g0_11&#45;&gt;context_1</title>
<path fill="none" stroke="black" stroke-dasharray="5,2" d="M311.42,-289C314.19,-289 316.96,-289 319.731,-289"/>
<polygon fill="black" stroke="black" points="319.761,-292.5 329.761,-289 319.761,-285.5 319.761,-292.5"/>
</g>
<!-- g1_28 -->
<g id="node3" class="node"><title>g1_28</title>
<polygon fill="none" stroke="black" points="225.25,-214 108.75,-214 108.75,-166 225.25,-166 225.25,-214"/>
<text text-anchor="start" x="158" y="-203" font-family="Times,serif" font-weight="bold" font-size="10.00">goal</text>
<text text-anchor="start" x="118.5" y="-193" font-family="Times,serif" font-size="10.00"> compositional behavior</text>
<text text-anchor="start" x="116.5" y="-183" font-family="Times,serif" font-size="10.00"> of the processes satisfies</text>
<text text-anchor="start" x="122" y="-173" font-family="Times,serif" font-size="10.00"> the local specification</text>
</g>
<!-- g0_11&#45;&gt;g1_28 -->
<g id="edge2" class="edge"><title>g0_11&#45;&gt;g1_28</title>
<path fill="none" stroke="black" d="M226.876,-264.519C216.493,-251.77 203.524,-235.846 192.313,-222.08"/>
<polygon fill="black" stroke="black" points="194.976,-219.808 185.948,-214.265 189.549,-224.229 194.976,-219.808"/>
</g>
<!-- away_goal_5 -->
<g id="node7" class="node"><title>away_goal_5</title>
<polygon fill="none" stroke="blue" points="408,-224 244,-224 244,-156 408,-156 408,-224"/>
<text text-anchor="start" x="304.5" y="-213" font-family="Times,serif" font-weight="bold" font-size="10.00">away goal</text>
<text text-anchor="start" x="288" y="-203" font-family="Times,serif" font-size="10.00"> Interactions are as</text>
<text text-anchor="start" x="271.5" y="-193" font-family="Times,serif" font-size="10.00"> defined by the architecture</text>
<text text-anchor="start" x="286.5" y="-183" font-family="Times,serif" font-size="10.00"> spec {iomt_spec1}</text>
<text text-anchor="start" x="252" y="-163" font-family="Times,serif" font-size="10.00">[ application_plane_interface_g0_6 ]</text>
</g>
<!-- g0_11&#45;&gt;away_goal_5 -->
<g id="edge6" class="edge"><title>g0_11&#45;&gt;away_goal_5</title>
<path fill="none" stroke="black" d="M265.366,-264.519C273.403,-254.773 282.972,-243.172 292.105,-232.098"/>
<polygon fill="black" stroke="black" points="294.988,-234.103 298.65,-224.161 289.588,-229.649 294.988,-234.103"/>
</g>
<!-- strategy_2 -->
<g id="node4" class="node"><title>strategy_2</title>
<polygon fill="none" stroke="black" points="226.108,-120 132.08,-120 107.892,-84 201.92,-84 226.108,-120"/>
<text text-anchor="start" x="149.5" y="-105" font-family="Times,serif" font-weight="bold" font-size="10.00">strategy</text>
<text text-anchor="start" x="133.5" y="-95" font-family="Times,serif" font-size="10.00"> no. of processes</text>
</g>
<!-- g1_28&#45;&gt;strategy_2 -->
<g id="edge3" class="edge"><title>g1_28&#45;&gt;strategy_2</title>
<path fill="none" stroke="black" d="M167,-165.954C167,-155.019 167,-141.873 167,-130.429"/>
<polygon fill="black" stroke="black" points="170.5,-130.105 167,-120.105 163.5,-130.105 170.5,-130.105"/>
</g>
<!-- away_goal_3 -->
<g id="node5" class="node"><title>away_goal_3</title>
<polygon fill="none" stroke="blue" points="158.25,-48 -0.25,-48 -0.25,-0 158.25,-0 158.25,-48"/>
<text text-anchor="start" x="57.5" y="-37" font-family="Times,serif" font-weight="bold" font-size="10.00">away goal</text>
<text text-anchor="start" x="33" y="-27" font-family="Times,serif" font-size="10.00"> process {P1} enforces</text>
<text text-anchor="start" x="51.5" y="-17" font-family="Times,serif" font-size="10.00"> its local spec</text>
<text text-anchor="start" x="7.5" y="-7" font-family="Times,serif" font-size="10.00">[ application_plane_process_g0_8 ]</text>
</g>
<!-- strategy_2&#45;&gt;away_goal_3 -->
<g id="edge4" class="edge"><title>strategy_2&#45;&gt;away_goal_3</title>
<path fill="none" stroke="black" d="M147.031,-83.7544C137.143,-75.2143 124.918,-64.6568 113.572,-54.8574"/>
<polygon fill="black" stroke="black" points="115.752,-52.1157 105.896,-48.2284 111.177,-57.4135 115.752,-52.1157"/>
</g>
<!-- away_goal_4 -->
<g id="node6" class="node"><title>away_goal_4</title>
<polygon fill="none" stroke="blue" points="335.25,-48 176.75,-48 176.75,-0 335.25,-0 335.25,-48"/>
<text text-anchor="start" x="234.5" y="-37" font-family="Times,serif" font-weight="bold" font-size="10.00">away goal</text>
<text text-anchor="start" x="210" y="-27" font-family="Times,serif" font-size="10.00"> process {P2} enforces</text>
<text text-anchor="start" x="228.5" y="-17" font-family="Times,serif" font-size="10.00"> its local spec</text>
<text text-anchor="start" x="184.5" y="-7" font-family="Times,serif" font-size="10.00">[ application_plane_process_g0_9 ]</text>
</g>
<!-- strategy_2&#45;&gt;away_goal_4 -->
<g id="edge5" class="edge"><title>strategy_2&#45;&gt;away_goal_4</title>
<path fill="none" stroke="black" d="M187.195,-83.7544C197.196,-75.2143 209.56,-64.6568 221.035,-54.8574"/>
<polygon fill="black" stroke="black" points="223.467,-57.3839 228.798,-48.2284 218.921,-52.0606 223.467,-57.3839"/>
</g>
</g>
</svg>
