<?xml version="1.0" encoding="UTF-8" standalone="no"?>
<!DOCTYPE svg PUBLIC "-//W3C//DTD SVG 1.1//EN"
 "http://www.w3.org/Graphics/SVG/1.1/DTD/svg11.dtd">
<!-- Generated by graphviz version 2.36.0 (20140111.2315)
 -->
<!-- Title: application_plane_process Pages: 1 -->
<svg width="554pt" height="242pt"
 viewBox="0.00 0.00 554.00 242.00" xmlns="http://www.w3.org/2000/svg" xmlns:xlink="http://www.w3.org/1999/xlink">
<g id="graph0" class="graph" transform="scale(1 1) rotate(0) translate(4 238)">
<title>application_plane_process</title>
<polygon fill="white" stroke="none" points="-4,4 -4,-238 550,-238 550,4 -4,4"/>
<!-- g0_9 -->
<g id="node1" class="node"><title>g0_9</title>
<polygon fill="none" stroke="black" points="275,-229 167,-229 167,-191 275,-191 275,-229"/>
<text text-anchor="start" x="212" y="-218" font-family="Times,serif" font-weight="bold" font-size="10.00">goal</text>
<text text-anchor="start" x="175" y="-208" font-family="Times,serif" font-size="10.00"> process {P2} enforces</text>
<text text-anchor="start" x="193.5" y="-198" font-family="Times,serif" font-size="10.00"> its local spec</text>
</g>
<!-- context_1 -->
<g id="node2" class="node"><title>context_1</title>
<path fill="none" stroke="black" d="M394.25,-234C394.25,-234 305.75,-234 305.75,-234 299.75,-234 293.75,-228 293.75,-222 293.75,-222 293.75,-198 293.75,-198 293.75,-192 299.75,-186 305.75,-186 305.75,-186 394.25,-186 394.25,-186 400.25,-186 406.25,-192 406.25,-198 406.25,-198 406.25,-222 406.25,-222 406.25,-228 400.25,-234 394.25,-234"/>
<text text-anchor="start" x="334" y="-223" font-family="Times,serif" font-weight="bold" font-size="10.00">context</text>
<text text-anchor="start" x="301.5" y="-213" font-family="Times,serif" font-size="10.00"> process {P2} is defined</text>
<text text-anchor="start" x="306" y="-203" font-family="Times,serif" font-size="10.00"> through its local spec</text>
<text text-anchor="start" x="316.5" y="-193" font-family="Times,serif" font-size="10.00"> and architecture</text>
</g>
<!-- g0_9&#45;&gt;context_1 -->
<g id="edge1" class="edge"><title>g0_9&#45;&gt;context_1</title>
<path fill="none" stroke="black" stroke-dasharray="5,2" d="M275.17,-210C277.951,-210 280.733,-210 283.514,-210"/>
<polygon fill="black" stroke="black" points="283.585,-213.5 293.585,-210 283.585,-206.5 283.585,-213.5"/>
</g>
<!-- g1_25 -->
<g id="node3" class="node"><title>g1_25</title>
<polygon fill="none" stroke="black" points="104.25,-135 -0.25,-135 -0.25,-87 104.25,-87 104.25,-135"/>
<text text-anchor="start" x="43" y="-124" font-family="Times,serif" font-weight="bold" font-size="10.00">goal</text>
<text text-anchor="start" x="7.5" y="-114" font-family="Times,serif" font-size="10.00"> Local spec is realized</text>
<text text-anchor="start" x="13.5" y="-104" font-family="Times,serif" font-size="10.00"> through the design</text>
<text text-anchor="start" x="15.5" y="-94" font-family="Times,serif" font-size="10.00"> of the component</text>
</g>
<!-- g0_9&#45;&gt;g1_25 -->
<g id="edge2" class="edge"><title>g0_9&#45;&gt;g1_25</title>
<path fill="none" stroke="black" d="M187.043,-190.793C165.895,-179.327 138.204,-164.08 114,-150 108.827,-146.991 103.443,-143.793 98.1051,-140.579"/>
<polygon fill="black" stroke="black" points="99.5748,-137.377 89.2088,-135.187 95.9465,-143.363 99.5748,-137.377"/>
</g>
<!-- away_goal_3 -->
<g id="node5" class="node"><title>away_goal_3</title>
<polygon fill="none" stroke="blue" points="319,-145 123,-145 123,-77 319,-77 319,-145"/>
<text text-anchor="start" x="199.5" y="-134" font-family="Times,serif" font-weight="bold" font-size="10.00">away goal</text>
<text text-anchor="start" x="178" y="-124" font-family="Times,serif" font-size="10.00"> Threats on {P2} will</text>
<text text-anchor="start" x="166.5" y="-114" font-family="Times,serif" font-size="10.00"> not affect the performance</text>
<text text-anchor="start" x="151" y="-104" font-family="Times,serif" font-size="10.00"> or consistency of communications</text>
<text text-anchor="start" x="131" y="-84" font-family="Times,serif" font-size="10.00">[ application_plane_process_threats_g0_26 ]</text>
</g>
<!-- g0_9&#45;&gt;away_goal_3 -->
<g id="edge4" class="edge"><title>g0_9&#45;&gt;away_goal_3</title>
<path fill="none" stroke="black" d="M221,-190.755C221,-180.722 221,-167.814 221,-155.362"/>
<polygon fill="black" stroke="black" points="224.5,-155.083 221,-145.083 217.5,-155.083 224.5,-155.083"/>
</g>
<!-- away_goal_4 -->
<g id="node6" class="node"><title>away_goal_4</title>
<polygon fill="none" stroke="blue" points="546.25,-150 337.75,-150 337.75,-72 546.25,-72 546.25,-150"/>
<text text-anchor="start" x="420.5" y="-139" font-family="Times,serif" font-weight="bold" font-size="10.00">away goal</text>
<text text-anchor="start" x="402.5" y="-129" font-family="Times,serif" font-size="10.00"> Properties required</text>
<text text-anchor="start" x="397.5" y="-119" font-family="Times,serif" font-size="10.00"> of the IoMT platform</text>
<text text-anchor="start" x="388" y="-109" font-family="Times,serif" font-size="10.00"> by {P2} in order to satisfy</text>
<text text-anchor="start" x="409.5" y="-99" font-family="Times,serif" font-size="10.00"> its specification</text>
<text text-anchor="start" x="418" y="-89" font-family="Times,serif" font-size="10.00"> are assured</text>
<text text-anchor="start" x="345.5" y="-79" font-family="Times,serif" font-size="10.00">[ application_plane_process_properties_g0_27 ]</text>
</g>
<!-- g0_9&#45;&gt;away_goal_4 -->
<g id="edge5" class="edge"><title>g0_9&#45;&gt;away_goal_4</title>
<path fill="none" stroke="black" d="M262.05,-190.982C285.704,-180.6 316.498,-167.085 345.907,-154.177"/>
<polygon fill="black" stroke="black" points="347.646,-157.236 355.396,-150.012 344.832,-150.826 347.646,-157.236"/>
</g>
<!-- missing_goal_2 -->
<g id="node4" class="node"><title>missing_goal_2</title>
<polygon fill="none" stroke="red" points="86.25,-36 17.75,-36 17.75,-0 86.25,-0 86.25,-36"/>
<text text-anchor="start" x="25.5" y="-16.5" font-family="Times,serif" font-weight="bold" font-size="10.00">missing goal</text>
</g>
<!-- g1_25&#45;&gt;missing_goal_2 -->
<g id="edge3" class="edge"><title>g1_25&#45;&gt;missing_goal_2</title>
<path fill="none" stroke="black" d="M52,-86.5652C52,-74.2227 52,-59.022 52,-46.1661"/>
<polygon fill="black" stroke="black" points="55.5001,-46.033 52,-36.033 48.5001,-46.033 55.5001,-46.033"/>
</g>
</g>
</svg>
