<?xml version="1.0" encoding="UTF-8" standalone="no"?>
<!DOCTYPE svg PUBLIC "-//W3C//DTD SVG 1.1//EN"
 "http://www.w3.org/Graphics/SVG/1.1/DTD/svg11.dtd">
<!-- Generated by graphviz version 2.36.0 (20140111.2315)
 -->
<!-- Title: IoMT_system Pages: 1 -->
<svg width="325pt" height="430pt"
 viewBox="0.00 0.00 325.00 430.00" xmlns="http://www.w3.org/2000/svg" xmlns:xlink="http://www.w3.org/1999/xlink">
<g id="graph0" class="graph" transform="scale(1 1) rotate(0) translate(4 426)">
<title>IoMT_system</title>
<polygon fill="white" stroke="none" points="-4,4 -4,-426 321,-426 321,4 -4,4"/>
<!-- g0_1 -->
<g id="node1" class="node"><title>g0_1</title>
<polygon fill="none" stroke="black" points="192.25,-407 67.75,-407 67.75,-369 192.25,-369 192.25,-407"/>
<text text-anchor="start" x="121" y="-396" font-family="Times,serif" font-weight="bold" font-size="10.00">goal</text>
<text text-anchor="start" x="75.5" y="-386" font-family="Times,serif" font-size="10.00"> The IoMT system satisfies</text>
<text text-anchor="start" x="84.5" y="-376" font-family="Times,serif" font-size="10.00"> its required properties</text>
</g>
<!-- context_1 -->
<g id="node2" class="node"><title>context_1</title>
<path fill="none" stroke="black" d="M305,-422C305,-422 223,-422 223,-422 217,-422 211,-416 211,-410 211,-410 211,-366 211,-366 211,-360 217,-354 223,-354 223,-354 305,-354 305,-354 311,-354 317,-360 317,-366 317,-366 317,-410 317,-410 317,-416 311,-422 305,-422"/>
<text text-anchor="start" x="248" y="-411" font-family="Times,serif" font-weight="bold" font-size="10.00">context</text>
<text text-anchor="start" x="219" y="-401" font-family="Times,serif" font-size="10.00"> The system is defined</text>
<text text-anchor="start" x="221.5" y="-391" font-family="Times,serif" font-size="10.00"> by the specifications</text>
<text text-anchor="start" x="229" y="-381" font-family="Times,serif" font-size="10.00"> of its application</text>
<text text-anchor="start" x="219" y="-371" font-family="Times,serif" font-size="10.00"> plane and its platform</text>
<text text-anchor="start" x="251.5" y="-361" font-family="Times,serif" font-size="10.00"> plane</text>
</g>
<!-- g0_1&#45;&gt;context_1 -->
<g id="edge1" class="edge"><title>g0_1&#45;&gt;context_1</title>
<path fill="none" stroke="black" stroke-dasharray="5,2" d="M192.289,-388C195.082,-388 197.874,-388 200.666,-388"/>
<polygon fill="black" stroke="black" points="200.777,-391.5 210.777,-388 200.777,-384.5 200.777,-391.5"/>
</g>
<!-- strategy_2 -->
<g id="node3" class="node"><title>strategy_2</title>
<polygon fill="none" stroke="black" points="244.064,-318 62.6135,-318 15.9357,-218 197.386,-218 244.064,-318"/>
<text text-anchor="start" x="112.5" y="-286" font-family="Times,serif" font-weight="bold" font-size="10.00">strategy</text>
<text text-anchor="start" x="75" y="-276" font-family="Times,serif" font-size="10.00"> The IoMT system depends</text>
<text text-anchor="start" x="81" y="-266" font-family="Times,serif" font-size="10.00"> on the synergy between</text>
<text text-anchor="start" x="88" y="-256" font-family="Times,serif" font-size="10.00"> the platform and the</text>
<text text-anchor="start" x="92.5" y="-246" font-family="Times,serif" font-size="10.00"> application planes</text>
</g>
<!-- g0_1&#45;&gt;strategy_2 -->
<g id="edge2" class="edge"><title>g0_1&#45;&gt;strategy_2</title>
<path fill="none" stroke="black" d="M130,-368.821C130,-357.79 130,-343.026 130,-328.241"/>
<polygon fill="black" stroke="black" points="133.5,-328.048 130,-318.048 126.5,-328.048 133.5,-328.048"/>
</g>
<!-- g1_2 -->
<g id="node4" class="node"><title>g1_2</title>
<polygon fill="none" stroke="black" points="119,-182 7,-182 7,-124 119,-124 119,-182"/>
<text text-anchor="start" x="54" y="-171" font-family="Times,serif" font-weight="bold" font-size="10.00">goal</text>
<text text-anchor="start" x="18" y="-161" font-family="Times,serif" font-size="10.00"> The application plane</text>
<text text-anchor="start" x="24.5" y="-151" font-family="Times,serif" font-size="10.00"> behaves according</text>
<text text-anchor="start" x="25" y="-141" font-family="Times,serif" font-size="10.00"> to its specification</text>
<text text-anchor="start" x="15" y="-131" font-family="Times,serif" font-size="10.00"> and required properties</text>
</g>
<!-- strategy_2&#45;&gt;g1_2 -->
<g id="edge3" class="edge"><title>strategy_2&#45;&gt;g1_2</title>
<path fill="none" stroke="black" d="M100.808,-217.765C95.4686,-208.76 89.9809,-199.505 84.8996,-190.935"/>
<polygon fill="black" stroke="black" points="87.8853,-189.108 79.7746,-182.291 81.8641,-192.678 87.8853,-189.108"/>
</g>
<!-- g2_4 -->
<g id="node6" class="node"><title>g2_4</title>
<polygon fill="none" stroke="black" points="257.25,-182 138.75,-182 138.75,-124 257.25,-124 257.25,-182"/>
<text text-anchor="start" x="189" y="-171" font-family="Times,serif" font-weight="bold" font-size="10.00">goal</text>
<text text-anchor="start" x="158" y="-161" font-family="Times,serif" font-size="10.00"> The platform plane</text>
<text text-anchor="start" x="146.5" y="-151" font-family="Times,serif" font-size="10.00"> guarantees the properties</text>
<text text-anchor="start" x="147" y="-141" font-family="Times,serif" font-size="10.00"> on which the application</text>
<text text-anchor="start" x="168" y="-131" font-family="Times,serif" font-size="10.00"> plane depends</text>
</g>
<!-- strategy_2&#45;&gt;g2_4 -->
<g id="edge5" class="edge"><title>strategy_2&#45;&gt;g2_4</title>
<path fill="none" stroke="black" d="M159.628,-217.765C165.047,-208.76 170.616,-199.505 175.774,-190.935"/>
<polygon fill="black" stroke="black" points="178.818,-192.664 180.975,-182.291 172.82,-189.055 178.818,-192.664"/>
</g>
<!-- away_goal_3 -->
<g id="node5" class="node"><title>away_goal_3</title>
<polygon fill="none" stroke="blue" points="124,-78 0,-78 0,-10 124,-10 124,-78"/>
<text text-anchor="start" x="40.5" y="-67" font-family="Times,serif" font-weight="bold" font-size="10.00">away goal</text>
<text text-anchor="start" x="17" y="-57" font-family="Times,serif" font-size="10.00"> The application plane</text>
<text text-anchor="start" x="23" y="-47" font-family="Times,serif" font-size="10.00"> guarantees that the</text>
<text text-anchor="start" x="19.5" y="-37" font-family="Times,serif" font-size="10.00"> {iomt_spec1} is met</text>
<text text-anchor="start" x="8" y="-17" font-family="Times,serif" font-size="10.00">[ application_plane_g0_3 ]</text>
</g>
<!-- g1_2&#45;&gt;away_goal_3 -->
<g id="edge4" class="edge"><title>g1_2&#45;&gt;away_goal_3</title>
<path fill="none" stroke="black" d="M62.7373,-123.887C62.6361,-113.064 62.5181,-100.436 62.4065,-88.4975"/>
<polygon fill="black" stroke="black" points="65.9041,-88.2129 62.3107,-78.2461 58.9044,-88.2784 65.9041,-88.2129"/>
</g>
<!-- away_goal_4 -->
<g id="node7" class="node"><title>away_goal_4</title>
<polygon fill="none" stroke="blue" points="256,-88 142,-88 142,-0 256,-0 256,-88"/>
<text text-anchor="start" x="177.5" y="-77" font-family="Times,serif" font-weight="bold" font-size="10.00">away goal</text>
<text text-anchor="start" x="159" y="-67" font-family="Times,serif" font-size="10.00"> The platform plane</text>
<text text-anchor="start" x="160" y="-57" font-family="Times,serif" font-size="10.00"> guarantees that the</text>
<text text-anchor="start" x="159" y="-47" font-family="Times,serif" font-size="10.00"> platform properties</text>
<text text-anchor="start" x="159.5" y="-37" font-family="Times,serif" font-size="10.00"> and the application</text>
<text text-anchor="start" x="160.5" y="-27" font-family="Times,serif" font-size="10.00"> plane assumptions</text>
<text text-anchor="start" x="182.5" y="-17" font-family="Times,serif" font-size="10.00"> are met</text>
<text text-anchor="start" x="150" y="-7" font-family="Times,serif" font-size="10.00">[ platform_plane_g0_5 ]</text>
</g>
<!-- g2_4&#45;&gt;away_goal_4 -->
<g id="edge6" class="edge"><title>g2_4&#45;&gt;away_goal_4</title>
<path fill="none" stroke="black" d="M198.263,-123.887C198.336,-116.054 198.418,-107.277 198.5,-98.4988"/>
<polygon fill="black" stroke="black" points="202.002,-98.2834 198.596,-88.2511 195.002,-98.2179 202.002,-98.2834"/>
</g>
</g>
</svg>
