<?xml version="1.0" encoding="UTF-8" standalone="no"?>
<!DOCTYPE svg PUBLIC "-//W3C//DTD SVG 1.1//EN"
 "http://www.w3.org/Graphics/SVG/1.1/DTD/svg11.dtd">
<!-- Generated by graphviz version 2.36.0 (20140111.2315)
 -->
<!-- Title: person Pages: 1 -->
<svg width="371pt" height="400pt"
 viewBox="0.00 0.00 371.00 400.00" xmlns="http://www.w3.org/2000/svg" xmlns:xlink="http://www.w3.org/1999/xlink">
<g id="graph0" class="graph" transform="scale(1 1) rotate(0) translate(4 396)">
<title>person</title>
<polygon fill="white" stroke="none" points="-4,4 -4,-396 367,-396 367,4 -4,4"/>
<!-- g0_70 -->
<g id="node1" class="node"><title>g0_70</title>
<polygon fill="none" stroke="black" points="284,-392 174,-392 174,-354 284,-354 284,-392"/>
<text text-anchor="start" x="220" y="-381" font-family="Times,serif" font-weight="bold" font-size="10.00">goal</text>
<text text-anchor="start" x="182" y="-371" font-family="Times,serif" font-size="10.00"> {Alicia} is sufficiently</text>
<text text-anchor="start" x="204.5" y="-361" font-family="Times,serif" font-size="10.00"> trustworthy</text>
</g>
<!-- g1_71 -->
<g id="node2" class="node"><title>g1_71</title>
<polygon fill="none" stroke="black" points="220.25,-313 95.75,-313 95.75,-265 220.25,-265 220.25,-313"/>
<text text-anchor="start" x="149" y="-302" font-family="Times,serif" font-weight="bold" font-size="10.00">goal</text>
<text text-anchor="start" x="103.5" y="-292" font-family="Times,serif" font-size="10.00"> {Alicia} has the necessary</text>
<text text-anchor="start" x="115.5" y="-282" font-family="Times,serif" font-size="10.00"> attributes to perform</text>
<text text-anchor="start" x="131" y="-272" font-family="Times,serif" font-size="10.00"> {Assurance}</text>
</g>
<!-- g0_70&#45;&gt;g1_71 -->
<g id="edge1" class="edge"><title>g0_70&#45;&gt;g1_71</title>
<path fill="none" stroke="black" d="M213.243,-353.802C204.893,-344.158 194.406,-332.046 184.819,-320.974"/>
<polygon fill="black" stroke="black" points="187.232,-318.414 178.04,-313.145 181.94,-322.996 187.232,-318.414"/>
</g>
<!-- g2_74 -->
<g id="node8" class="node"><title>g2_74</title>
<polygon fill="none" stroke="black" points="363.25,-318 238.75,-318 238.75,-260 363.25,-260 363.25,-318"/>
<text text-anchor="start" x="292" y="-307" font-family="Times,serif" font-weight="bold" font-size="10.00">goal</text>
<text text-anchor="start" x="254.5" y="-297" font-family="Times,serif" font-size="10.00"> {Alicia} has sufficient</text>
<text text-anchor="start" x="260" y="-287" font-family="Times,serif" font-size="10.00"> level of supervision</text>
<text text-anchor="start" x="246.5" y="-277" font-family="Times,serif" font-size="10.00"> and review to successfully</text>
<text text-anchor="start" x="256.5" y="-267" font-family="Times,serif" font-size="10.00"> perform {Assurance}</text>
</g>
<!-- g0_70&#45;&gt;g2_74 -->
<g id="edge7" class="edge"><title>g0_70&#45;&gt;g2_74</title>
<path fill="none" stroke="black" d="M244.979,-353.802C252.236,-345.536 261.085,-335.458 269.587,-325.776"/>
<polygon fill="black" stroke="black" points="272.326,-327.961 276.294,-318.137 267.066,-323.342 272.326,-327.961"/>
</g>
<!-- strategy_1 -->
<g id="node3" class="node"><title>strategy_1</title>
<polygon fill="none" stroke="black" points="247.074,-224 105.377,-224 68.9261,-188 210.623,-188 247.074,-224"/>
<text text-anchor="start" x="140.5" y="-209" font-family="Times,serif" font-weight="bold" font-size="10.00">strategy</text>
<text text-anchor="start" x="107.5" y="-199" font-family="Times,serif" font-size="10.00"> argument over attributes</text>
</g>
<!-- g1_71&#45;&gt;strategy_1 -->
<g id="edge2" class="edge"><title>g1_71&#45;&gt;strategy_1</title>
<path fill="none" stroke="black" d="M158,-264.571C158,-255.101 158,-244.107 158,-234.279"/>
<polygon fill="black" stroke="black" points="161.5,-234.2 158,-224.2 154.5,-234.2 161.5,-234.2"/>
</g>
<!-- g11_72 -->
<g id="node4" class="node"><title>g11_72</title>
<polygon fill="none" stroke="black" points="139.25,-152 26.75,-152 26.75,-104 139.25,-104 139.25,-152"/>
<text text-anchor="start" x="74" y="-141" font-family="Times,serif" font-weight="bold" font-size="10.00">goal</text>
<text text-anchor="start" x="36.5" y="-131" font-family="Times,serif" font-size="10.00"> {Alicia} has sufficient</text>
<text text-anchor="start" x="34.5" y="-121" font-family="Times,serif" font-size="10.00"> {capability} to perform</text>
<text text-anchor="start" x="56" y="-111" font-family="Times,serif" font-size="10.00"> {Assurance}</text>
</g>
<!-- strategy_1&#45;&gt;g11_72 -->
<g id="edge3" class="edge"><title>strategy_1&#45;&gt;g11_72</title>
<path fill="none" stroke="black" d="M140.981,-187.754C132.716,-179.379 122.535,-169.062 113.023,-159.424"/>
<polygon fill="black" stroke="black" points="115.438,-156.888 105.923,-152.228 110.456,-161.805 115.438,-156.888"/>
</g>
<!-- g11_73 -->
<g id="node6" class="node"><title>g11_73</title>
<polygon fill="none" stroke="black" points="292.25,-152 175.75,-152 175.75,-104 292.25,-104 292.25,-152"/>
<text text-anchor="start" x="225" y="-141" font-family="Times,serif" font-weight="bold" font-size="10.00">goal</text>
<text text-anchor="start" x="187.5" y="-131" font-family="Times,serif" font-size="10.00"> {Alicia} has sufficient</text>
<text text-anchor="start" x="183.5" y="-121" font-family="Times,serif" font-size="10.00"> {experience} to perform</text>
<text text-anchor="start" x="207" y="-111" font-family="Times,serif" font-size="10.00"> {Assurance}</text>
</g>
<!-- strategy_1&#45;&gt;g11_73 -->
<g id="edge5" class="edge"><title>strategy_1&#45;&gt;g11_73</title>
<path fill="none" stroke="black" d="M175.246,-187.754C183.621,-179.379 193.938,-169.062 203.576,-159.424"/>
<polygon fill="black" stroke="black" points="206.175,-161.774 210.772,-152.228 201.226,-156.825 206.175,-161.774"/>
</g>
<!-- evidence_2 -->
<g id="node5" class="node"><title>evidence_2</title>
<ellipse fill="none" stroke="blue" cx="74" cy="-34" rx="74.3697" ry="33.8824"/>
<text text-anchor="start" x="52.5" y="-47" font-family="Times,serif" font-weight="bold" font-size="10.00">certificate</text>
<text text-anchor="start" x="29.5" y="-37" font-family="Times,serif" font-size="10.00"> {Alicia} {capability}</text>
<text text-anchor="start" x="40" y="-27" font-family="Times,serif" font-size="10.00"> for {Assurance}</text>
<text text-anchor="start" x="33" y="-17" font-family="Times,serif" font-size="10.00">ongoing xref: 10030</text>
</g>
<!-- g11_72&#45;&gt;evidence_2 -->
<g id="edge4" class="edge"><title>g11_72&#45;&gt;evidence_2</title>
<path fill="none" stroke="black" d="M80.7289,-103.785C79.9654,-95.9795 79.0873,-87.0037 78.2229,-78.1678"/>
<polygon fill="black" stroke="black" points="81.6793,-77.5497 77.2222,-67.938 74.7125,-78.2313 81.6793,-77.5497"/>
</g>
<!-- evidence_3 -->
<g id="node7" class="node"><title>evidence_3</title>
<ellipse fill="none" stroke="blue" cx="243" cy="-34" rx="76.0518" ry="33.8824"/>
<text text-anchor="start" x="221.5" y="-47" font-family="Times,serif" font-weight="bold" font-size="10.00">certificate</text>
<text text-anchor="start" x="197" y="-37" font-family="Times,serif" font-size="10.00"> {Alicia} {experience}</text>
<text text-anchor="start" x="209" y="-27" font-family="Times,serif" font-size="10.00"> for {Assurance}</text>
<text text-anchor="start" x="202" y="-17" font-family="Times,serif" font-size="10.00">ongoing xref: 10031</text>
</g>
<!-- g11_73&#45;&gt;evidence_3 -->
<g id="edge6" class="edge"><title>g11_73&#45;&gt;evidence_3</title>
<path fill="none" stroke="black" d="M236.271,-103.785C237.035,-95.9795 237.913,-87.0037 238.777,-78.1678"/>
<polygon fill="black" stroke="black" points="242.287,-78.2313 239.778,-67.938 235.321,-77.5497 242.287,-78.2313"/>
</g>
</g>
</svg>
