<?xml version="1.0" encoding="UTF-8" standalone="no"?>
<!DOCTYPE svg PUBLIC "-//W3C//DTD SVG 1.1//EN"
 "http://www.w3.org/Graphics/SVG/1.1/DTD/svg11.dtd">
<!-- Generated by graphviz version 2.36.0 (20140111.2315)
 -->
<!-- Title: person Pages: 1 -->
<svg width="385pt" height="414pt"
 viewBox="0.00 0.00 385.00 414.00" xmlns="http://www.w3.org/2000/svg" xmlns:xlink="http://www.w3.org/1999/xlink">
<g id="graph0" class="graph" transform="scale(1 1) rotate(0) translate(4 410)">
<title>person</title>
<polygon fill="white" stroke="none" points="-4,4 -4,-410 381,-410 381,4 -4,4"/>
<!-- g0_75 -->
<g id="node1" class="node"><title>g0_75</title>
<polygon fill="none" stroke="black" points="299.25,-406 182.75,-406 182.75,-368 299.25,-368 299.25,-406"/>
<text text-anchor="start" x="232" y="-395" font-family="Times,serif" font-weight="bold" font-size="10.00">goal</text>
<text text-anchor="start" x="190.5" y="-385" font-family="Times,serif" font-size="10.00"> {Roberto} is sufficiently</text>
<text text-anchor="start" x="216.5" y="-375" font-family="Times,serif" font-size="10.00"> trustworthy</text>
</g>
<!-- g1_76 -->
<g id="node2" class="node"><title>g1_76</title>
<polygon fill="none" stroke="black" points="234.25,-327 101.75,-327 101.75,-279 234.25,-279 234.25,-327"/>
<text text-anchor="start" x="159" y="-316" font-family="Times,serif" font-weight="bold" font-size="10.00">goal</text>
<text text-anchor="start" x="109.5" y="-306" font-family="Times,serif" font-size="10.00"> {Roberto} has the necessary</text>
<text text-anchor="start" x="125.5" y="-296" font-family="Times,serif" font-size="10.00"> attributes to perform</text>
<text text-anchor="start" x="135" y="-286" font-family="Times,serif" font-size="10.00"> {Development}</text>
</g>
<!-- g0_75&#45;&gt;g1_76 -->
<g id="edge1" class="edge"><title>g0_75&#45;&gt;g1_76</title>
<path fill="none" stroke="black" d="M224.799,-367.802C216.13,-358.064 205.222,-345.811 195.287,-334.652"/>
<polygon fill="black" stroke="black" points="197.868,-332.287 188.605,-327.145 192.64,-336.942 197.868,-332.287"/>
</g>
<!-- g2_79 -->
<g id="node8" class="node"><title>g2_79</title>
<polygon fill="none" stroke="black" points="377.25,-332 252.75,-332 252.75,-274 377.25,-274 377.25,-332"/>
<text text-anchor="start" x="306" y="-321" font-family="Times,serif" font-weight="bold" font-size="10.00">goal</text>
<text text-anchor="start" x="265" y="-311" font-family="Times,serif" font-size="10.00"> {Roberto} has sufficient</text>
<text text-anchor="start" x="274" y="-301" font-family="Times,serif" font-size="10.00"> level of supervision</text>
<text text-anchor="start" x="260.5" y="-291" font-family="Times,serif" font-size="10.00"> and review to successfully</text>
<text text-anchor="start" x="264.5" y="-281" font-family="Times,serif" font-size="10.00"> perform {Development}</text>
</g>
<!-- g0_75&#45;&gt;g2_79 -->
<g id="edge7" class="edge"><title>g0_75&#45;&gt;g2_79</title>
<path fill="none" stroke="black" d="M257.423,-367.802C264.882,-359.536 273.977,-349.458 282.715,-339.776"/>
<polygon fill="black" stroke="black" points="285.507,-341.906 289.608,-332.137 280.31,-337.216 285.507,-341.906"/>
</g>
<!-- strategy_1 -->
<g id="node3" class="node"><title>strategy_1</title>
<polygon fill="none" stroke="black" points="257.074,-238 115.377,-238 78.9261,-202 220.623,-202 257.074,-238"/>
<text text-anchor="start" x="150.5" y="-223" font-family="Times,serif" font-weight="bold" font-size="10.00">strategy</text>
<text text-anchor="start" x="117.5" y="-213" font-family="Times,serif" font-size="10.00"> argument over attributes</text>
</g>
<!-- g1_76&#45;&gt;strategy_1 -->
<g id="edge2" class="edge"><title>g1_76&#45;&gt;strategy_1</title>
<path fill="none" stroke="black" d="M168,-278.571C168,-269.101 168,-258.107 168,-248.279"/>
<polygon fill="black" stroke="black" points="171.5,-248.2 168,-238.2 164.5,-248.2 171.5,-248.2"/>
</g>
<!-- g11_77 -->
<g id="node4" class="node"><title>g11_77</title>
<polygon fill="none" stroke="black" points="148,-166 32,-166 32,-118 148,-118 148,-166"/>
<text text-anchor="start" x="81" y="-155" font-family="Times,serif" font-weight="bold" font-size="10.00">goal</text>
<text text-anchor="start" x="40" y="-145" font-family="Times,serif" font-size="10.00"> {Roberto} has sufficient</text>
<text text-anchor="start" x="41.5" y="-135" font-family="Times,serif" font-size="10.00"> {capability} to perform</text>
<text text-anchor="start" x="57" y="-125" font-family="Times,serif" font-size="10.00"> {Development}</text>
</g>
<!-- strategy_1&#45;&gt;g11_77 -->
<g id="edge3" class="edge"><title>strategy_1&#45;&gt;g11_77</title>
<path fill="none" stroke="black" d="M150.301,-201.754C141.704,-193.379 131.116,-183.062 121.224,-173.424"/>
<polygon fill="black" stroke="black" points="123.445,-170.7 113.84,-166.228 118.559,-175.714 123.445,-170.7"/>
</g>
<!-- g11_78 -->
<g id="node6" class="node"><title>g11_78</title>
<polygon fill="none" stroke="black" points="305.25,-166 188.75,-166 188.75,-118 305.25,-118 305.25,-166"/>
<text text-anchor="start" x="238" y="-155" font-family="Times,serif" font-weight="bold" font-size="10.00">goal</text>
<text text-anchor="start" x="197" y="-145" font-family="Times,serif" font-size="10.00"> {Roberto} has sufficient</text>
<text text-anchor="start" x="196.5" y="-135" font-family="Times,serif" font-size="10.00"> {experience} to perform</text>
<text text-anchor="start" x="214" y="-125" font-family="Times,serif" font-size="10.00"> {Development}</text>
</g>
<!-- strategy_1&#45;&gt;g11_78 -->
<g id="edge5" class="edge"><title>strategy_1&#45;&gt;g11_78</title>
<path fill="none" stroke="black" d="M185.926,-201.754C194.633,-193.379 205.356,-183.062 215.375,-173.424"/>
<polygon fill="black" stroke="black" points="218.075,-175.684 222.855,-166.228 213.222,-170.639 218.075,-175.684"/>
</g>
<!-- evidence_2 -->
<g id="node5" class="node"><title>evidence_2</title>
<ellipse fill="none" stroke="blue" cx="79" cy="-41" rx="79.2942" ry="41.0244"/>
<text text-anchor="start" x="57.5" y="-59" font-family="Times,serif" font-weight="bold" font-size="10.00">certificate</text>
<text text-anchor="start" x="31" y="-49" font-family="Times,serif" font-size="10.00"> {Roberto} {capability}</text>
<text text-anchor="start" x="38.5" y="-39" font-family="Times,serif" font-size="10.00"> for {Development}</text>
<text text-anchor="start" x="38" y="-19" font-family="Times,serif" font-size="10.00">ongoing xref: 10032</text>
</g>
<!-- g11_77&#45;&gt;evidence_2 -->
<g id="edge4" class="edge"><title>g11_77&#45;&gt;evidence_2</title>
<path fill="none" stroke="black" d="M87.421,-117.789C86.5628,-110.065 85.571,-101.139 84.5759,-92.183"/>
<polygon fill="black" stroke="black" points="88.0409,-91.6733 83.4579,-82.121 81.0837,-92.4464 88.0409,-91.6733"/>
</g>
<!-- evidence_3 -->
<g id="node7" class="node"><title>evidence_3</title>
<ellipse fill="none" stroke="blue" cx="258" cy="-41" rx="82.0366" ry="41.0244"/>
<text text-anchor="start" x="236.5" y="-59" font-family="Times,serif" font-weight="bold" font-size="10.00">certificate</text>
<text text-anchor="start" x="208" y="-49" font-family="Times,serif" font-size="10.00"> {Roberto} {experience}</text>
<text text-anchor="start" x="217.5" y="-39" font-family="Times,serif" font-size="10.00"> for {Development}</text>
<text text-anchor="start" x="217" y="-19" font-family="Times,serif" font-size="10.00">ongoing xref: 10033</text>
</g>
<!-- g11_78&#45;&gt;evidence_3 -->
<g id="edge6" class="edge"><title>g11_78&#45;&gt;evidence_3</title>
<path fill="none" stroke="black" d="M249.579,-117.789C250.437,-110.065 251.429,-101.139 252.424,-92.183"/>
<polygon fill="black" stroke="black" points="255.916,-92.4464 253.542,-82.121 248.959,-91.6733 255.916,-92.4464"/>
</g>
</g>
</svg>
