<?xml version="1.0" encoding="UTF-8" standalone="no"?>
<!DOCTYPE svg PUBLIC "-//W3C//DTD SVG 1.1//EN"
 "http://www.w3.org/Graphics/SVG/1.1/DTD/svg11.dtd">
<!-- Generated by graphviz version 2.36.0 (20140111.2315)
 -->
<!-- Title: platform_plane Pages: 1 -->
<svg width="467pt" height="334pt"
 viewBox="0.00 0.00 467.00 334.00" xmlns="http://www.w3.org/2000/svg" xmlns:xlink="http://www.w3.org/1999/xlink">
<g id="graph0" class="graph" transform="scale(1 1) rotate(0) translate(4 330)">
<title>platform_plane</title>
<polygon fill="white" stroke="none" points="-4,4 -4,-330 463,-330 463,4 -4,4"/>
<!-- g0_5 -->
<g id="node1" class="node"><title>g0_5</title>
<polygon fill="none" stroke="black" points="310,-326 214,-326 214,-248 310,-248 310,-326"/>
<text text-anchor="start" x="253" y="-315" font-family="Times,serif" font-weight="bold" font-size="10.00">goal</text>
<text text-anchor="start" x="222" y="-305" font-family="Times,serif" font-size="10.00"> The platform plane</text>
<text text-anchor="start" x="223" y="-295" font-family="Times,serif" font-size="10.00"> guarantees that the</text>
<text text-anchor="start" x="222" y="-285" font-family="Times,serif" font-size="10.00"> platform properties</text>
<text text-anchor="start" x="222.5" y="-275" font-family="Times,serif" font-size="10.00"> and the application</text>
<text text-anchor="start" x="223.5" y="-265" font-family="Times,serif" font-size="10.00"> plane assumptions</text>
<text text-anchor="start" x="245.5" y="-255" font-family="Times,serif" font-size="10.00"> are met</text>
</g>
<!-- context_1 -->
<g id="node2" class="node"><title>context_1</title>
<path fill="none" stroke="black" d="M434,-306C434,-306 340,-306 340,-306 334,-306 328,-300 328,-294 328,-294 328,-280 328,-280 328,-274 334,-268 340,-268 340,-268 434,-268 434,-268 440,-268 446,-274 446,-280 446,-280 446,-294 446,-294 446,-300 440,-306 434,-306"/>
<text text-anchor="start" x="371" y="-295" font-family="Times,serif" font-weight="bold" font-size="10.00">context</text>
<text text-anchor="start" x="336" y="-285" font-family="Times,serif" font-size="10.00"> The IoMT system model</text>
<text text-anchor="start" x="347.5" y="-275" font-family="Times,serif" font-size="10.00"> describes the plane</text>
</g>
<!-- g0_5&#45;&gt;context_1 -->
<g id="edge1" class="edge"><title>g0_5&#45;&gt;context_1</title>
<path fill="none" stroke="black" stroke-dasharray="5,2" d="M310.34,-287C312.782,-287 315.225,-287 317.667,-287"/>
<polygon fill="black" stroke="black" points="317.708,-290.5 327.708,-287 317.708,-283.5 317.708,-290.5"/>
</g>
<!-- strategy_2 -->
<g id="node3" class="node"><title>strategy_2</title>
<polygon fill="none" stroke="black" points="267.064,-208 85.6135,-208 38.9357,-108 220.386,-108 267.064,-208"/>
<text text-anchor="start" x="135.5" y="-176" font-family="Times,serif" font-weight="bold" font-size="10.00">strategy</text>
<text text-anchor="start" x="98" y="-166" font-family="Times,serif" font-size="10.00"> Argument over the desired</text>
<text text-anchor="start" x="98" y="-156" font-family="Times,serif" font-size="10.00"> behavior and requirements</text>
<text text-anchor="start" x="105.5" y="-146" font-family="Times,serif" font-size="10.00"> of each IoMT platform</text>
<text text-anchor="start" x="142" y="-136" font-family="Times,serif" font-size="10.00"> node</text>
</g>
<!-- g0_5&#45;&gt;strategy_2 -->
<g id="edge2" class="edge"><title>g0_5&#45;&gt;strategy_2</title>
<path fill="none" stroke="black" d="M229.296,-247.896C220.718,-237.901 211.277,-226.901 202.047,-216.147"/>
<polygon fill="black" stroke="black" points="204.548,-213.686 195.379,-208.377 199.236,-218.245 204.548,-213.686"/>
</g>
<!-- away_goal_5 -->
<g id="node6" class="node"><title>away_goal_5</title>
<polygon fill="none" stroke="blue" points="459,-212 285,-212 285,-104 459,-104 459,-212"/>
<text text-anchor="start" x="350.5" y="-201" font-family="Times,serif" font-weight="bold" font-size="10.00">away goal</text>
<text text-anchor="start" x="317" y="-191" font-family="Times,serif" font-size="10.00"> TS network (TSN) ensures</text>
<text text-anchor="start" x="323" y="-181" font-family="Times,serif" font-size="10.00"> that critical information</text>
<text text-anchor="start" x="333.5" y="-171" font-family="Times,serif" font-size="10.00"> is delivered timely</text>
<text text-anchor="start" x="317.5" y="-161" font-family="Times,serif" font-size="10.00"> and additionally optimises</text>
<text text-anchor="start" x="324.5" y="-151" font-family="Times,serif" font-size="10.00"> bandwidth by labelling</text>
<text text-anchor="start" x="323" y="-141" font-family="Times,serif" font-size="10.00"> messages with different</text>
<text text-anchor="start" x="337" y="-131" font-family="Times,serif" font-size="10.00"> levels of priority</text>
<text text-anchor="start" x="293" y="-111" font-family="Times,serif" font-size="10.00">[ platform_plane_TS_network_g0_14 ]</text>
</g>
<!-- g0_5&#45;&gt;away_goal_5 -->
<g id="edge5" class="edge"><title>g0_5&#45;&gt;away_goal_5</title>
<path fill="none" stroke="black" d="M295.004,-247.896C302.694,-239.017 311.07,-229.346 319.375,-219.758"/>
<polygon fill="black" stroke="black" points="322.103,-221.954 326.005,-212.103 316.812,-217.371 322.103,-221.954"/>
</g>
<!-- away_goal_3 -->
<g id="node4" class="node"><title>away_goal_3</title>
<polygon fill="none" stroke="blue" points="144,-68 0,-68 0,-0 144,-0 144,-68"/>
<text text-anchor="start" x="50.5" y="-57" font-family="Times,serif" font-weight="bold" font-size="10.00">away goal</text>
<text text-anchor="start" x="15" y="-47" font-family="Times,serif" font-size="10.00"> The platform node {node1}</text>
<text text-anchor="start" x="24" y="-37" font-family="Times,serif" font-size="10.00"> meets the requirements</text>
<text text-anchor="start" x="35.5" y="-27" font-family="Times,serif" font-size="10.00"> stated in the local</text>
<text text-anchor="start" x="44.5" y="-17" font-family="Times,serif" font-size="10.00"> requirements</text>
<text text-anchor="start" x="8" y="-7" font-family="Times,serif" font-size="10.00">[ platform_plane_node_g0_12 ]</text>
</g>
<!-- strategy_2&#45;&gt;away_goal_3 -->
<g id="edge3" class="edge"><title>strategy_2&#45;&gt;away_goal_3</title>
<path fill="none" stroke="black" d="M120.288,-107.73C113.428,-97.3975 106.258,-86.5989 99.6067,-76.5805"/>
<polygon fill="black" stroke="black" points="102.363,-74.4037 93.9156,-68.0087 96.531,-78.2756 102.363,-74.4037"/>
</g>
<!-- away_goal_4 -->
<g id="node5" class="node"><title>away_goal_4</title>
<polygon fill="none" stroke="blue" points="306,-68 162,-68 162,-0 306,-0 306,-68"/>
<text text-anchor="start" x="212.5" y="-57" font-family="Times,serif" font-weight="bold" font-size="10.00">away goal</text>
<text text-anchor="start" x="177" y="-47" font-family="Times,serif" font-size="10.00"> The platform node {node2}</text>
<text text-anchor="start" x="186" y="-37" font-family="Times,serif" font-size="10.00"> meets the requirements</text>
<text text-anchor="start" x="197.5" y="-27" font-family="Times,serif" font-size="10.00"> stated in the local</text>
<text text-anchor="start" x="206.5" y="-17" font-family="Times,serif" font-size="10.00"> requirements</text>
<text text-anchor="start" x="170" y="-7" font-family="Times,serif" font-size="10.00">[ platform_plane_node_g0_13 ]</text>
</g>
<!-- strategy_2&#45;&gt;away_goal_4 -->
<g id="edge4" class="edge"><title>strategy_2&#45;&gt;away_goal_4</title>
<path fill="none" stroke="black" d="M185.712,-107.73C192.572,-97.3975 199.742,-86.5989 206.393,-76.5805"/>
<polygon fill="black" stroke="black" points="209.469,-78.2756 212.084,-68.0087 203.637,-74.4037 209.469,-78.2756"/>
</g>
</g>
</svg>
