<?xml version="1.0" encoding="UTF-8" standalone="no"?>
<!DOCTYPE svg PUBLIC "-//W3C//DTD SVG 1.1//EN"
 "http://www.w3.org/Graphics/SVG/1.1/DTD/svg11.dtd">
<!-- Generated by graphviz version 2.36.0 (20140111.2315)
 -->
<!-- Title: platform_plane_node Pages: 1 -->
<svg width="605pt" height="698pt"
 viewBox="0.00 0.00 605.00 698.00" xmlns="http://www.w3.org/2000/svg" xmlns:xlink="http://www.w3.org/1999/xlink">
<g id="graph0" class="graph" transform="scale(1 1) rotate(0) translate(4 694)">
<title>platform_plane_node</title>
<polygon fill="white" stroke="none" points="-4,4 -4,-694 601,-694 601,4 -4,4"/>
<!-- g0_12 -->
<g id="node1" class="node"><title>g0_12</title>
<polygon fill="none" stroke="black" points="415,-690 285,-690 285,-632 415,-632 415,-690"/>
<text text-anchor="start" x="341" y="-679" font-family="Times,serif" font-weight="bold" font-size="10.00">goal</text>
<text text-anchor="start" x="293" y="-669" font-family="Times,serif" font-size="10.00"> The platform node {node1}</text>
<text text-anchor="start" x="302" y="-659" font-family="Times,serif" font-size="10.00"> meets the requirements</text>
<text text-anchor="start" x="313.5" y="-649" font-family="Times,serif" font-size="10.00"> stated in the local</text>
<text text-anchor="start" x="322.5" y="-639" font-family="Times,serif" font-size="10.00"> requirements</text>
</g>
<!-- strategy_1 -->
<g id="node2" class="node"><title>strategy_1</title>
<polygon fill="none" stroke="black" points="341.34,-586 151.497,-586 102.66,-506 292.503,-506 341.34,-586"/>
<text text-anchor="start" x="204.5" y="-559" font-family="Times,serif" font-weight="bold" font-size="10.00">strategy</text>
<text text-anchor="start" x="174.5" y="-549" font-family="Times,serif" font-size="10.00"> Argument over desired</text>
<text text-anchor="start" x="164.5" y="-539" font-family="Times,serif" font-size="10.00"> behaviour and requirements</text>
<text text-anchor="start" x="187.5" y="-529" font-family="Times,serif" font-size="10.00"> of each node OS</text>
</g>
<!-- g0_12&#45;&gt;strategy_1 -->
<g id="edge1" class="edge"><title>g0_12&#45;&gt;strategy_1</title>
<path fill="none" stroke="black" d="M318.03,-631.777C304.788,-620.087 289.082,-606.221 274.247,-593.125"/>
<polygon fill="black" stroke="black" points="276.4,-590.356 266.587,-586.362 271.767,-595.604 276.4,-590.356"/>
</g>
<!-- strategy_4 -->
<g id="node11" class="node"><title>strategy_4</title>
<polygon fill="none" stroke="black" points="597.34,-596 407.497,-596 358.66,-496 548.503,-496 597.34,-596"/>
<text text-anchor="start" x="460.5" y="-564" font-family="Times,serif" font-weight="bold" font-size="10.00">strategy</text>
<text text-anchor="start" x="430.5" y="-554" font-family="Times,serif" font-size="10.00"> Argument over desired</text>
<text text-anchor="start" x="420.5" y="-544" font-family="Times,serif" font-size="10.00"> behaviour and requirements</text>
<text text-anchor="start" x="426" y="-534" font-family="Times,serif" font-size="10.00"> of each network software</text>
<text text-anchor="start" x="449" y="-524" font-family="Times,serif" font-size="10.00"> (NS) instance</text>
</g>
<!-- g0_12&#45;&gt;strategy_4 -->
<g id="edge11" class="edge"><title>g0_12&#45;&gt;strategy_4</title>
<path fill="none" stroke="black" d="M381.97,-631.777C391.897,-623.013 403.209,-613.026 414.501,-603.058"/>
<polygon fill="black" stroke="black" points="417.117,-605.417 422.297,-596.175 412.484,-600.169 417.117,-605.417"/>
</g>
<!-- g1_29 -->
<g id="node3" class="node"><title>g1_29</title>
<polygon fill="none" stroke="black" points="283.25,-460 160.75,-460 160.75,-402 283.25,-402 283.25,-460"/>
<text text-anchor="start" x="213" y="-449" font-family="Times,serif" font-weight="bold" font-size="10.00">goal</text>
<text text-anchor="start" x="176" y="-439" font-family="Times,serif" font-size="10.00"> Node OS ensures data</text>
<text text-anchor="start" x="183.5" y="-429" font-family="Times,serif" font-size="10.00"> separation and fair</text>
<text text-anchor="start" x="168.5" y="-419" font-family="Times,serif" font-size="10.00"> processor time scheduling</text>
<text text-anchor="start" x="193.5" y="-409" font-family="Times,serif" font-size="10.00"> per processor</text>
</g>
<!-- strategy_1&#45;&gt;g1_29 -->
<g id="edge2" class="edge"><title>strategy_1&#45;&gt;g1_29</title>
<path fill="none" stroke="black" d="M222,-505.795C222,-494.277 222,-481.698 222,-470.242"/>
<polygon fill="black" stroke="black" points="225.5,-470.098 222,-460.098 218.5,-470.098 225.5,-470.098"/>
</g>
<!-- g11_30 -->
<g id="node4" class="node"><title>g11_30</title>
<polygon fill="none" stroke="black" points="140.25,-366 -0.25,-366 -0.25,-258 140.25,-258 140.25,-366"/>
<text text-anchor="start" x="61" y="-355" font-family="Times,serif" font-weight="bold" font-size="10.00">goal</text>
<text text-anchor="start" x="7.5" y="-345" font-family="Times,serif" font-size="10.00"> Runtime resource constructors</text>
<text text-anchor="start" x="24" y="-335" font-family="Times,serif" font-size="10.00"> and destructors ensure</text>
<text text-anchor="start" x="25.5" y="-325" font-family="Times,serif" font-size="10.00"> initialization function</text>
<text text-anchor="start" x="19.5" y="-315" font-family="Times,serif" font-size="10.00"> and low&#45;level primitives</text>
<text text-anchor="start" x="27" y="-305" font-family="Times,serif" font-size="10.00"> to create and destroy</text>
<text text-anchor="start" x="32.5" y="-295" font-family="Times,serif" font-size="10.00"> resources, and the</text>
<text text-anchor="start" x="26" y="-285" font-family="Times,serif" font-size="10.00"> underlying allocation</text>
<text text-anchor="start" x="9.5" y="-275" font-family="Times,serif" font-size="10.00"> and management of primitive</text>
<text text-anchor="start" x="49.5" y="-265" font-family="Times,serif" font-size="10.00"> resources</text>
</g>
<!-- g1_29&#45;&gt;g11_30 -->
<g id="edge3" class="edge"><title>g1_29&#45;&gt;g11_30</title>
<path fill="none" stroke="black" d="M185.592,-401.976C173.845,-392.934 160.347,-382.544 146.815,-372.127"/>
<polygon fill="black" stroke="black" points="148.916,-369.328 138.857,-366.001 144.646,-374.875 148.916,-369.328"/>
</g>
<!-- g12_32 -->
<g id="node7" class="node"><title>g12_32</title>
<polygon fill="none" stroke="black" points="285,-346 159,-346 159,-278 285,-278 285,-346"/>
<text text-anchor="start" x="213" y="-335" font-family="Times,serif" font-weight="bold" font-size="10.00">goal</text>
<text text-anchor="start" x="167" y="-325" font-family="Times,serif" font-size="10.00"> Node OS provides runtime</text>
<text text-anchor="start" x="168.5" y="-315" font-family="Times,serif" font-size="10.00"> reconfiguration primitives</text>
<text text-anchor="start" x="170.5" y="-305" font-family="Times,serif" font-size="10.00"> that permit an authorized</text>
<text text-anchor="start" x="184" y="-295" font-family="Times,serif" font-size="10.00"> subject to perform</text>
<text text-anchor="start" x="176.5" y="-285" font-family="Times,serif" font-size="10.00"> configuration changes</text>
</g>
<!-- g1_29&#45;&gt;g12_32 -->
<g id="edge6" class="edge"><title>g1_29&#45;&gt;g12_32</title>
<path fill="none" stroke="black" d="M222,-401.976C222,-388.353 222,-371.672 222,-356.45"/>
<polygon fill="black" stroke="black" points="225.5,-356.2 222,-346.2 218.5,-356.2 225.5,-356.2"/>
</g>
<!-- g13_33 -->
<g id="node8" class="node"><title>g13_33</title>
<polygon fill="none" stroke="black" points="452.25,-351 303.75,-351 303.75,-273 452.25,-273 452.25,-351"/>
<text text-anchor="start" x="369" y="-340" font-family="Times,serif" font-weight="bold" font-size="10.00">goal</text>
<text text-anchor="start" x="311.5" y="-330" font-family="Times,serif" font-size="10.00"> Node OS provides configuration</text>
<text text-anchor="start" x="329" y="-320" font-family="Times,serif" font-size="10.00"> introspection primitives</text>
<text text-anchor="start" x="326.5" y="-310" font-family="Times,serif" font-size="10.00"> that permit an authorised</text>
<text text-anchor="start" x="340" y="-300" font-family="Times,serif" font-size="10.00"> subject to obtain a</text>
<text text-anchor="start" x="343" y="-290" font-family="Times,serif" font-size="10.00"> representation of</text>
<text text-anchor="start" x="327" y="-280" font-family="Times,serif" font-size="10.00"> the current configuration</text>
</g>
<!-- g1_29&#45;&gt;g13_33 -->
<g id="edge8" class="edge"><title>g1_29&#45;&gt;g13_33</title>
<path fill="none" stroke="black" d="M259.366,-401.976C277.191,-388.607 298.945,-372.291 318.933,-357.3"/>
<polygon fill="black" stroke="black" points="321.179,-359.991 327.079,-351.191 316.979,-354.391 321.179,-359.991"/>
</g>
<!-- g4_31 -->
<g id="node5" class="node"><title>g4_31</title>
<polygon fill="none" stroke="black" points="199,-212 65,-212 65,-114 199,-114 199,-212"/>
<text text-anchor="start" x="123" y="-201" font-family="Times,serif" font-weight="bold" font-size="10.00">goal</text>
<text text-anchor="start" x="89" y="-191" font-family="Times,serif" font-size="10.00"> CC evaluation of the</text>
<text text-anchor="start" x="77.5" y="-181" font-family="Times,serif" font-size="10.00"> operating system indicates</text>
<text text-anchor="start" x="73" y="-171" font-family="Times,serif" font-size="10.00"> compliance to the Protection</text>
<text text-anchor="start" x="93" y="-161" font-family="Times,serif" font-size="10.00"> Profile for General</text>
<text text-anchor="start" x="93" y="-151" font-family="Times,serif" font-size="10.00"> Purpose Operating</text>
<text text-anchor="start" x="81.5" y="-141" font-family="Times,serif" font-size="10.00"> Systems and is extended</text>
<text text-anchor="start" x="81.5" y="-131" font-family="Times,serif" font-size="10.00"> with the aforementioned</text>
<text text-anchor="start" x="113" y="-121" font-family="Times,serif" font-size="10.00"> subgoals</text>
</g>
<!-- g11_30&#45;&gt;g4_31 -->
<g id="edge4" class="edge"><title>g11_30&#45;&gt;g4_31</title>
<path fill="none" stroke="black" d="M92.3834,-257.93C97.3646,-246.119 102.668,-233.545 107.722,-221.563"/>
<polygon fill="black" stroke="black" points="111.048,-222.682 111.71,-212.108 104.598,-219.962 111.048,-222.682"/>
</g>
<!-- evidence_2 -->
<g id="node6" class="node"><title>evidence_2</title>
<ellipse fill="none" stroke="blue" cx="132" cy="-34" rx="84.2802" ry="33.8824"/>
<text text-anchor="start" x="110.5" y="-47" font-family="Times,serif" font-weight="bold" font-size="10.00">certificate</text>
<text text-anchor="start" x="80" y="-37" font-family="Times,serif" font-size="10.00"> CC Evaluation certificate</text>
<text text-anchor="start" x="91" y="-17" font-family="Times,serif" font-size="10.00">ongoing xref: 10009</text>
</g>
<!-- g4_31&#45;&gt;evidence_2 -->
<g id="edge5" class="edge"><title>g4_31&#45;&gt;evidence_2</title>
<path fill="none" stroke="black" d="M132,-113.987C132,-102.263 132,-89.7888 132,-78.2997"/>
<polygon fill="black" stroke="black" points="135.5,-78.075 132,-68.075 128.5,-78.0751 135.5,-78.075"/>
</g>
<!-- g12_32&#45;&gt;g4_31 -->
<g id="edge7" class="edge"><title>g12_32&#45;&gt;g4_31</title>
<path fill="none" stroke="black" d="M201.578,-277.643C191.323,-260.895 178.613,-240.135 166.873,-220.959"/>
<polygon fill="black" stroke="black" points="169.766,-218.981 161.559,-212.28 163.796,-222.636 169.766,-218.981"/>
</g>
<!-- g131_34 -->
<g id="node9" class="node"><title>g131_34</title>
<polygon fill="none" stroke="black" points="447,-222 309,-222 309,-104 447,-104 447,-222"/>
<text text-anchor="start" x="369" y="-211" font-family="Times,serif" font-weight="bold" font-size="10.00">goal</text>
<text text-anchor="start" x="341" y="-201" font-family="Times,serif" font-size="10.00"> The configuration</text>
<text text-anchor="start" x="317.5" y="-191" font-family="Times,serif" font-size="10.00"> plane generates configuration</text>
<text text-anchor="start" x="328" y="-181" font-family="Times,serif" font-size="10.00"> blueprints and low&#45;level</text>
<text text-anchor="start" x="334.5" y="-171" font-family="Times,serif" font-size="10.00"> system configuration</text>
<text text-anchor="start" x="339.5" y="-161" font-family="Times,serif" font-size="10.00"> properties that can</text>
<text text-anchor="start" x="328.5" y="-151" font-family="Times,serif" font-size="10.00"> be monitored at runtime</text>
<text text-anchor="start" x="317" y="-141" font-family="Times,serif" font-size="10.00"> from high&#45;level specifications</text>
<text text-anchor="start" x="334.5" y="-131" font-family="Times,serif" font-size="10.00"> of the bounds of safe</text>
<text text-anchor="start" x="335" y="-121" font-family="Times,serif" font-size="10.00"> and secure operation</text>
<text text-anchor="start" x="317" y="-111" font-family="Times,serif" font-size="10.00"> and permissible configuration</text>
</g>
<!-- g13_33&#45;&gt;g131_34 -->
<g id="edge9" class="edge"><title>g13_33&#45;&gt;g131_34</title>
<path fill="none" stroke="black" d="M378,-272.761C378,-260.303 378,-246.072 378,-232.104"/>
<polygon fill="black" stroke="black" points="381.5,-232.008 378,-222.008 374.5,-232.008 381.5,-232.008"/>
</g>
<!-- evidence_3 -->
<g id="node10" class="node"><title>evidence_3</title>
<ellipse fill="none" stroke="blue" cx="378" cy="-34" rx="80.9767" ry="33.8824"/>
<text text-anchor="start" x="357.5" y="-47" font-family="Times,serif" font-weight="bold" font-size="10.00">unknown</text>
<text text-anchor="start" x="328.5" y="-37" font-family="Times,serif" font-size="10.00"> configuration blueprints</text>
<text text-anchor="start" x="337" y="-17" font-family="Times,serif" font-size="10.00">pending xref: 10010</text>
</g>
<!-- g131_34&#45;&gt;evidence_3 -->
<g id="edge10" class="edge"><title>g131_34&#45;&gt;evidence_3</title>
<path fill="none" stroke="black" d="M378,-103.704C378,-95.0842 378,-86.3358 378,-78.0998"/>
<polygon fill="black" stroke="black" points="381.5,-77.9896 378,-67.9897 374.5,-77.9897 381.5,-77.9896"/>
</g>
<!-- g2_35 -->
<g id="node12" class="node"><title>g2_35</title>
<polygon fill="none" stroke="black" points="528.25,-450 427.75,-450 427.75,-412 528.25,-412 528.25,-450"/>
<text text-anchor="start" x="469" y="-439" font-family="Times,serif" font-weight="bold" font-size="10.00">goal</text>
<text text-anchor="start" x="435.5" y="-429" font-family="Times,serif" font-size="10.00"> Requirements of NS</text>
<text text-anchor="start" x="444" y="-419" font-family="Times,serif" font-size="10.00"> instance are met</text>
</g>
<!-- strategy_4&#45;&gt;g2_35 -->
<g id="edge12" class="edge"><title>strategy_4&#45;&gt;g2_35</title>
<path fill="none" stroke="black" d="M478,-495.765C478,-483.632 478,-471.045 478,-460.291"/>
<polygon fill="black" stroke="black" points="481.5,-460.234 478,-450.234 474.5,-460.234 481.5,-460.234"/>
</g>
</g>
</svg>
