<?xml version="1.0" encoding="UTF-8" standalone="no"?>
<!DOCTYPE svg PUBLIC "-//W3C//DTD SVG 1.1//EN"
 "http://www.w3.org/Graphics/SVG/1.1/DTD/svg11.dtd">
<!-- Generated by graphviz version 2.36.0 (20140111.2315)
 -->
<!-- Title: platform_plane_TS_network Pages: 1 -->
<svg width="1426pt" height="1000pt"
 viewBox="0.00 0.00 1426.00 1000.00" xmlns="http://www.w3.org/2000/svg" xmlns:xlink="http://www.w3.org/1999/xlink">
<g id="graph0" class="graph" transform="scale(1 1) rotate(0) translate(4 996)">
<title>platform_plane_TS_network</title>
<polygon fill="white" stroke="none" points="-4,4 -4,-996 1422,-996 1422,4 -4,4"/>
<!-- g0_14 -->
<g id="node1" class="node"><title>g0_14</title>
<polygon fill="none" stroke="black" points="755,-992 629,-992 629,-904 755,-904 755,-992"/>
<text text-anchor="start" x="683" y="-981" font-family="Times,serif" font-weight="bold" font-size="10.00">goal</text>
<text text-anchor="start" x="637" y="-971" font-family="Times,serif" font-size="10.00"> TS network (TSN) ensures</text>
<text text-anchor="start" x="643" y="-961" font-family="Times,serif" font-size="10.00"> that critical information</text>
<text text-anchor="start" x="653.5" y="-951" font-family="Times,serif" font-size="10.00"> is delivered timely</text>
<text text-anchor="start" x="637.5" y="-941" font-family="Times,serif" font-size="10.00"> and additionally optimises</text>
<text text-anchor="start" x="644.5" y="-931" font-family="Times,serif" font-size="10.00"> bandwidth by labelling</text>
<text text-anchor="start" x="643" y="-921" font-family="Times,serif" font-size="10.00"> messages with different</text>
<text text-anchor="start" x="657" y="-911" font-family="Times,serif" font-size="10.00"> levels of priority</text>
</g>
<!-- strategy_1 -->
<g id="node2" class="node"><title>strategy_1</title>
<polygon fill="none" stroke="black" points="789.182,-868 634.587,-868 594.818,-788 749.413,-788 789.182,-868"/>
<text text-anchor="start" x="674.5" y="-841" font-family="Times,serif" font-weight="bold" font-size="10.00">strategy</text>
<text text-anchor="start" x="645" y="-831" font-family="Times,serif" font-size="10.00"> Argument over correct</text>
<text text-anchor="start" x="653.5" y="-821" font-family="Times,serif" font-size="10.00"> implementation of</text>
<text text-anchor="start" x="681" y="-811" font-family="Times,serif" font-size="10.00"> TSN</text>
</g>
<!-- g0_14&#45;&gt;strategy_1 -->
<g id="edge1" class="edge"><title>g0_14&#45;&gt;strategy_1</title>
<path fill="none" stroke="black" d="M692,-903.731C692,-895.501 692,-886.83 692,-878.426"/>
<polygon fill="black" stroke="black" points="695.5,-878.354 692,-868.354 688.5,-878.354 695.5,-878.354"/>
</g>
<!-- assumption_2 -->
<g id="node3" class="node"><title>assumption_2</title>
<path fill="none" stroke="black" d="M889,-847C889,-847 819,-847 819,-847 813,-847 807,-841 807,-835 807,-835 807,-821 807,-821 807,-815 813,-809 819,-809 819,-809 889,-809 889,-809 895,-809 901,-815 901,-821 901,-821 901,-835 901,-835 901,-841 895,-847 889,-847"/>
<text text-anchor="start" x="829.5" y="-836" font-family="Times,serif" font-weight="bold" font-size="10.00">assumption</text>
<text text-anchor="start" x="815" y="-826" font-family="Times,serif" font-size="10.00"> TSN configuration</text>
<text text-anchor="start" x="826.5" y="-816" font-family="Times,serif" font-size="10.00"> file is correct</text>
</g>
<!-- strategy_1&#45;&gt;assumption_2 -->
<g id="edge2" class="edge"><title>strategy_1&#45;&gt;assumption_2</title>
<path fill="none" stroke="black" stroke-dasharray="5,2" d="M769.52,-828C778.551,-828 787.582,-828 796.613,-828"/>
<polygon fill="black" stroke="black" points="796.81,-831.5 806.81,-828 796.81,-824.5 796.81,-831.5"/>
</g>
<!-- g1_43 -->
<g id="node4" class="node"><title>g1_43</title>
<polygon fill="none" stroke="black" points="248,-727 122,-727 122,-679 248,-679 248,-727"/>
<text text-anchor="start" x="176" y="-716" font-family="Times,serif" font-weight="bold" font-size="10.00">goal</text>
<text text-anchor="start" x="130" y="-706" font-family="Times,serif" font-size="10.00"> TSN supports the dynamic</text>
<text text-anchor="start" x="147.5" y="-696" font-family="Times,serif" font-size="10.00"> reconfiguration of</text>
<text text-anchor="start" x="156.5" y="-686" font-family="Times,serif" font-size="10.00"> IoMT system</text>
</g>
<!-- strategy_1&#45;&gt;g1_43 -->
<g id="edge3" class="edge"><title>strategy_1&#45;&gt;g1_43</title>
<path fill="none" stroke="black" d="M611.922,-823.148C522.547,-816.608 374.991,-799.041 257,-752 244.888,-747.171 232.712,-740.099 221.908,-732.859"/>
<polygon fill="black" stroke="black" points="223.773,-729.894 213.565,-727.057 219.777,-735.64 223.773,-729.894"/>
</g>
<!-- g2_46 -->
<g id="node12" class="node"><title>g2_46</title>
<polygon fill="none" stroke="black" points="684,-727 550,-727 550,-679 684,-679 684,-727"/>
<text text-anchor="start" x="608" y="-716" font-family="Times,serif" font-weight="bold" font-size="10.00">goal</text>
<text text-anchor="start" x="578" y="-706" font-family="Times,serif" font-size="10.00"> TSN configuration</text>
<text text-anchor="start" x="558" y="-696" font-family="Times,serif" font-size="10.00"> file is correctly implemented</text>
<text text-anchor="start" x="583.5" y="-686" font-family="Times,serif" font-size="10.00"> by the hardware</text>
</g>
<!-- strategy_1&#45;&gt;g2_46 -->
<g id="edge11" class="edge"><title>strategy_1&#45;&gt;g2_46</title>
<path fill="none" stroke="black" d="M668.063,-787.744C657.886,-771.053 646.168,-751.835 636.526,-736.023"/>
<polygon fill="black" stroke="black" points="639.311,-733.867 631.117,-727.151 633.334,-737.511 639.311,-733.867"/>
</g>
<!-- g3_49 -->
<g id="node15" class="node"><title>g3_49</title>
<polygon fill="none" stroke="black" points="832,-752 702,-752 702,-654 832,-654 832,-752"/>
<text text-anchor="start" x="758" y="-741" font-family="Times,serif" font-weight="bold" font-size="10.00">goal</text>
<text text-anchor="start" x="710" y="-731" font-family="Times,serif" font-size="10.00"> Mechanisms in the network</text>
<text text-anchor="start" x="718" y="-721" font-family="Times,serif" font-size="10.00"> switches and end&#45;nodes</text>
<text text-anchor="start" x="724" y="-711" font-family="Times,serif" font-size="10.00"> dynamically add and</text>
<text text-anchor="start" x="721" y="-701" font-family="Times,serif" font-size="10.00"> remove links (runtime</text>
<text text-anchor="start" x="720" y="-691" font-family="Times,serif" font-size="10.00"> configuration changes)</text>
<text text-anchor="start" x="728" y="-681" font-family="Times,serif" font-size="10.00"> whilst maintaining</text>
<text text-anchor="start" x="711.5" y="-671" font-family="Times,serif" font-size="10.00"> availability and guaranteed</text>
<text text-anchor="start" x="716" y="-661" font-family="Times,serif" font-size="10.00"> time&#45;sensitive properties</text>
</g>
<!-- strategy_1&#45;&gt;g3_49 -->
<g id="edge14" class="edge"><title>strategy_1&#45;&gt;g3_49</title>
<path fill="none" stroke="black" d="M715.937,-787.744C721.135,-779.219 726.734,-770.036 732.254,-760.983"/>
<polygon fill="black" stroke="black" points="735.288,-762.73 737.506,-752.37 729.312,-759.086 735.288,-762.73"/>
</g>
<!-- g4_51 -->
<g id="node17" class="node"><title>g4_51</title>
<polygon fill="none" stroke="black" points="992,-732 850,-732 850,-674 992,-674 992,-732"/>
<text text-anchor="start" x="912" y="-721" font-family="Times,serif" font-weight="bold" font-size="10.00">goal</text>
<text text-anchor="start" x="875" y="-711" font-family="Times,serif" font-size="10.00"> TSN ensures that only</text>
<text text-anchor="start" x="876.5" y="-701" font-family="Times,serif" font-size="10.00"> communications with</text>
<text text-anchor="start" x="858" y="-691" font-family="Times,serif" font-size="10.00"> the implemented configuration</text>
<text text-anchor="start" x="908.5" y="-681" font-family="Times,serif" font-size="10.00"> occur</text>
</g>
<!-- strategy_1&#45;&gt;g4_51 -->
<g id="edge16" class="edge"><title>strategy_1&#45;&gt;g4_51</title>
<path fill="none" stroke="black" d="M754.153,-796.998C781.089,-783.666 812.841,-767.507 841,-752 849.424,-747.361 858.244,-742.292 866.823,-737.241"/>
<polygon fill="black" stroke="black" points="868.835,-740.117 875.649,-732.004 865.263,-734.097 868.835,-740.117"/>
</g>
<!-- assumption_3 -->
<g id="node5" class="node"><title>assumption_3</title>
<path fill="none" stroke="black" d="M520,-727C520,-727 414,-727 414,-727 408,-727 402,-721 402,-715 402,-715 402,-691 402,-691 402,-685 408,-679 414,-679 414,-679 520,-679 520,-679 526,-679 532,-685 532,-691 532,-691 532,-715 532,-715 532,-721 526,-727 520,-727"/>
<text text-anchor="start" x="442.5" y="-716" font-family="Times,serif" font-weight="bold" font-size="10.00">assumption</text>
<text text-anchor="start" x="410" y="-706" font-family="Times,serif" font-size="10.00"> TSN End system primitives</text>
<text text-anchor="start" x="419.5" y="-696" font-family="Times,serif" font-size="10.00"> are in place to enhance</text>
<text text-anchor="start" x="416.5" y="-686" font-family="Times,serif" font-size="10.00"> dynamic reconfiguration</text>
</g>
<!-- g1_43&#45;&gt;assumption_3 -->
<g id="edge4" class="edge"><title>g1_43&#45;&gt;assumption_3</title>
<path fill="none" stroke="black" stroke-dasharray="5,2" d="M205.66,-727.145C220.617,-742.667 242.304,-761.47 266,-770 314.926,-787.613 333.919,-787.177 383,-770 403.691,-762.759 423.086,-748.047 438.016,-734.25"/>
<polygon fill="black" stroke="black" points="440.609,-736.612 445.399,-727.162 435.761,-731.563 440.609,-736.612"/>
</g>
<!-- assumption_4 -->
<g id="node6" class="node"><title>assumption_4</title>
<path fill="none" stroke="black" d="M371.25,-727C371.25,-727 278.75,-727 278.75,-727 272.75,-727 266.75,-721 266.75,-715 266.75,-715 266.75,-691 266.75,-691 266.75,-685 272.75,-679 278.75,-679 278.75,-679 371.25,-679 371.25,-679 377.25,-679 383.25,-685 383.25,-691 383.25,-691 383.25,-715 383.25,-715 383.25,-721 377.25,-727 371.25,-727"/>
<text text-anchor="start" x="300.5" y="-716" font-family="Times,serif" font-weight="bold" font-size="10.00">assumption</text>
<text text-anchor="start" x="278" y="-706" font-family="Times,serif" font-size="10.00"> TSN switch primitives</text>
<text text-anchor="start" x="277.5" y="-696" font-family="Times,serif" font-size="10.00"> are in place to enhance</text>
<text text-anchor="start" x="274.5" y="-686" font-family="Times,serif" font-size="10.00"> dynamic reconfiguration</text>
</g>
<!-- g1_43&#45;&gt;assumption_4 -->
<g id="edge5" class="edge"><title>g1_43&#45;&gt;assumption_4</title>
<path fill="none" stroke="black" stroke-dasharray="5,2" d="M248.164,-703C250.929,-703 253.695,-703 256.46,-703"/>
<polygon fill="black" stroke="black" points="256.473,-706.5 266.473,-703 256.473,-699.5 256.473,-706.5"/>
</g>
<!-- strategy_5 -->
<g id="node7" class="node"><title>strategy_5</title>
<polygon fill="none" stroke="black" points="339.214,-618 93.8938,-618 30.7856,-558 276.106,-558 339.214,-618"/>
<text text-anchor="start" x="167.5" y="-596" font-family="Times,serif" font-weight="bold" font-size="10.00">strategy</text>
<text text-anchor="start" x="110.5" y="-586" font-family="Times,serif" font-size="10.00"> Argument over TSN reconfiguration</text>
<text text-anchor="start" x="165" y="-576" font-family="Times,serif" font-size="10.00"> protocols</text>
</g>
<!-- g1_43&#45;&gt;strategy_5 -->
<g id="edge6" class="edge"><title>g1_43&#45;&gt;strategy_5</title>
<path fill="none" stroke="black" d="M185,-678.86C185,-664.316 185,-645.176 185,-628.3"/>
<polygon fill="black" stroke="black" points="188.5,-628.146 185,-618.146 181.5,-628.146 188.5,-628.146"/>
</g>
<!-- g11_44 -->
<g id="node8" class="node"><title>g11_44</title>
<polygon fill="none" stroke="black" points="173.25,-507 28.75,-507 28.75,-459 173.25,-459 173.25,-507"/>
<text text-anchor="start" x="92" y="-496" font-family="Times,serif" font-weight="bold" font-size="10.00">goal</text>
<text text-anchor="start" x="56.5" y="-486" font-family="Times,serif" font-size="10.00"> A protocol is in place</text>
<text text-anchor="start" x="36.5" y="-476" font-family="Times,serif" font-size="10.00"> to collect IoMT reconfiguration</text>
<text text-anchor="start" x="83" y="-466" font-family="Times,serif" font-size="10.00"> requests</text>
</g>
<!-- strategy_5&#45;&gt;g11_44 -->
<g id="edge7" class="edge"><title>strategy_5&#45;&gt;g11_44</title>
<path fill="none" stroke="black" d="M161.154,-557.76C150.308,-544.462 137.464,-528.711 126.434,-515.187"/>
<polygon fill="black" stroke="black" points="128.867,-512.633 119.835,-507.095 123.443,-517.057 128.867,-512.633"/>
</g>
<!-- g12_45 -->
<g id="node10" class="node"><title>g12_45</title>
<polygon fill="none" stroke="black" points="312,-512 204,-512 204,-454 312,-454 312,-512"/>
<text text-anchor="start" x="249" y="-501" font-family="Times,serif" font-weight="bold" font-size="10.00">goal</text>
<text text-anchor="start" x="213.5" y="-491" font-family="Times,serif" font-size="10.00"> A protocol is in place</text>
<text text-anchor="start" x="212" y="-481" font-family="Times,serif" font-size="10.00"> to distribute new TSN</text>
<text text-anchor="start" x="213.5" y="-471" font-family="Times,serif" font-size="10.00"> schedules to platform</text>
<text text-anchor="start" x="245" y="-461" font-family="Times,serif" font-size="10.00"> nodes</text>
</g>
<!-- strategy_5&#45;&gt;g12_45 -->
<g id="edge9" class="edge"><title>strategy_5&#45;&gt;g12_45</title>
<path fill="none" stroke="black" d="M205.724,-557.76C213.943,-546.162 223.485,-532.7 232.149,-520.475"/>
<polygon fill="black" stroke="black" points="235.053,-522.43 237.98,-512.247 229.342,-518.382 235.053,-522.43"/>
</g>
<!-- evidence_6 -->
<g id="node9" class="node"><title>evidence_6</title>
<ellipse fill="none" stroke="blue" cx="77" cy="-367" rx="77.112" ry="41.0244"/>
<text text-anchor="start" x="56.5" y="-385" font-family="Times,serif" font-weight="bold" font-size="10.00">unknown</text>
<text text-anchor="start" x="37.5" y="-375" font-family="Times,serif" font-size="10.00"> Verification results</text>
<text text-anchor="start" x="30.5" y="-365" font-family="Times,serif" font-size="10.00"> for the reconfiguration</text>
<text text-anchor="start" x="43" y="-355" font-family="Times,serif" font-size="10.00"> request protocol</text>
<text text-anchor="start" x="36" y="-345" font-family="Times,serif" font-size="10.00">pending xref: 10013</text>
</g>
<!-- g11_44&#45;&gt;evidence_6 -->
<g id="edge8" class="edge"><title>g11_44&#45;&gt;evidence_6</title>
<path fill="none" stroke="black" d="M96.1432,-458.93C93.6744,-447.203 90.5712,-432.463 87.5864,-418.285"/>
<polygon fill="black" stroke="black" points="90.9297,-417.176 85.4446,-408.112 84.0799,-418.619 90.9297,-417.176"/>
</g>
<!-- evidence_7 -->
<g id="node11" class="node"><title>evidence_7</title>
<ellipse fill="none" stroke="blue" cx="270" cy="-367" rx="97.3709" ry="41.0244"/>
<text text-anchor="start" x="249.5" y="-385" font-family="Times,serif" font-weight="bold" font-size="10.00">unknown</text>
<text text-anchor="start" x="230.5" y="-375" font-family="Times,serif" font-size="10.00"> Verification results</text>
<text text-anchor="start" x="209" y="-365" font-family="Times,serif" font-size="10.00"> for TSN schedule distribution</text>
<text text-anchor="start" x="252" y="-355" font-family="Times,serif" font-size="10.00"> protocol</text>
<text text-anchor="start" x="229" y="-345" font-family="Times,serif" font-size="10.00">pending xref: 10014</text>
</g>
<!-- g12_45&#45;&gt;evidence_7 -->
<g id="edge10" class="edge"><title>g12_45&#45;&gt;evidence_7</title>
<path fill="none" stroke="black" d="M260.966,-453.82C262.094,-443.106 263.416,-430.548 264.695,-418.395"/>
<polygon fill="black" stroke="black" points="268.188,-418.644 265.754,-408.333 261.227,-417.911 268.188,-418.644"/>
</g>
<!-- g21_47 -->
<g id="node13" class="node"><title>g21_47</title>
<polygon fill="none" stroke="black" points="683.25,-612 544.75,-612 544.75,-564 683.25,-564 683.25,-612"/>
<text text-anchor="start" x="605" y="-601" font-family="Times,serif" font-weight="bold" font-size="10.00">goal</text>
<text text-anchor="start" x="557.5" y="-591" font-family="Times,serif" font-size="10.00"> The hardware is configured</text>
<text text-anchor="start" x="552.5" y="-581" font-family="Times,serif" font-size="10.00"> according to the configuration</text>
<text text-anchor="start" x="604" y="-571" font-family="Times,serif" font-size="10.00"> files</text>
</g>
<!-- g2_46&#45;&gt;g21_47 -->
<g id="edge12" class="edge"><title>g2_46&#45;&gt;g21_47</title>
<path fill="none" stroke="black" d="M616.386,-678.86C615.953,-662.559 615.367,-640.487 614.884,-622.297"/>
<polygon fill="black" stroke="black" points="618.378,-622.013 614.614,-612.109 611.38,-622.198 618.378,-622.013"/>
</g>
<!-- g211_48 -->
<g id="node14" class="node"><title>g211_48</title>
<polygon fill="none" stroke="black" points="674.25,-522 553.75,-522 553.75,-444 674.25,-444 674.25,-522"/>
<text text-anchor="start" x="605" y="-511" font-family="Times,serif" font-weight="bold" font-size="10.00">goal</text>
<text text-anchor="start" x="575" y="-501" font-family="Times,serif" font-size="10.00"> Configuration data</text>
<text text-anchor="start" x="574.5" y="-491" font-family="Times,serif" font-size="10.00"> is downloaded into</text>
<text text-anchor="start" x="561.5" y="-481" font-family="Times,serif" font-size="10.00"> platform node controllers</text>
<text text-anchor="start" x="566" y="-471" font-family="Times,serif" font-size="10.00"> and switches over TSN</text>
<text text-anchor="start" x="561.5" y="-461" font-family="Times,serif" font-size="10.00"> network from application</text>
<text text-anchor="start" x="566" y="-451" font-family="Times,serif" font-size="10.00"> on central management</text>
</g>
<!-- g21_47&#45;&gt;g211_48 -->
<g id="edge13" class="edge"><title>g21_47&#45;&gt;g211_48</title>
<path fill="none" stroke="black" d="M614,-563.885C614,-554.626 614,-543.586 614,-532.713"/>
<polygon fill="black" stroke="black" points="617.5,-532.403 614,-522.403 610.5,-532.403 617.5,-532.403"/>
</g>
<!-- g31_50 -->
<g id="node16" class="node"><title>g31_50</title>
<polygon fill="none" stroke="black" points="834.25,-617 701.75,-617 701.75,-559 834.25,-559 834.25,-617"/>
<text text-anchor="start" x="759" y="-606" font-family="Times,serif" font-weight="bold" font-size="10.00">goal</text>
<text text-anchor="start" x="715.5" y="-596" font-family="Times,serif" font-size="10.00"> A mechanisms is in place</text>
<text text-anchor="start" x="728" y="-586" font-family="Times,serif" font-size="10.00"> that safely requests</text>
<text text-anchor="start" x="709.5" y="-576" font-family="Times,serif" font-size="10.00"> and distributes configuration</text>
<text text-anchor="start" x="758" y="-566" font-family="Times,serif" font-size="10.00"> data</text>
</g>
<!-- g3_49&#45;&gt;g31_50 -->
<g id="edge15" class="edge"><title>g3_49&#45;&gt;g31_50</title>
<path fill="none" stroke="black" d="M767.427,-653.75C767.505,-644.88 767.586,-635.732 767.662,-627.207"/>
<polygon fill="black" stroke="black" points="771.162,-627.208 767.751,-617.178 764.162,-627.146 771.162,-627.208"/>
</g>
<!-- g41_52 -->
<g id="node18" class="node"><title>g41_52</title>
<polygon fill="none" stroke="black" points="983,-612 855,-612 855,-564 983,-564 983,-612"/>
<text text-anchor="start" x="910" y="-601" font-family="Times,serif" font-weight="bold" font-size="10.00">goal</text>
<text text-anchor="start" x="863" y="-591" font-family="Times,serif" font-size="10.00"> TSN network fault&#45;tolerant</text>
<text text-anchor="start" x="863.5" y="-581" font-family="Times,serif" font-size="10.00"> design ensures consistency</text>
<text text-anchor="start" x="879" y="-571" font-family="Times,serif" font-size="10.00"> of communications</text>
</g>
<!-- g4_51&#45;&gt;g41_52 -->
<g id="edge17" class="edge"><title>g4_51&#45;&gt;g41_52</title>
<path fill="none" stroke="black" d="M920.5,-673.777C920.225,-658.226 919.882,-638.824 919.593,-622.507"/>
<polygon fill="black" stroke="black" points="923.089,-622.238 919.412,-612.301 916.09,-622.362 923.089,-622.238"/>
</g>
<!-- g42_58 -->
<g id="node28" class="node"><title>g42_58</title>
<polygon fill="none" stroke="black" points="1136,-607 1028,-607 1028,-569 1136,-569 1136,-607"/>
<text text-anchor="start" x="1073" y="-596" font-family="Times,serif" font-weight="bold" font-size="10.00">goal</text>
<text text-anchor="start" x="1036" y="-586" font-family="Times,serif" font-size="10.00"> TSN ensures temporal</text>
<text text-anchor="start" x="1048" y="-576" font-family="Times,serif" font-size="10.00"> behavior frames</text>
</g>
<!-- g4_51&#45;&gt;g42_58 -->
<g id="edge27" class="edge"><title>g4_51&#45;&gt;g42_58</title>
<path fill="none" stroke="black" d="M961.212,-673.777C987.822,-655.1 1022.35,-630.869 1047.66,-613.099"/>
<polygon fill="black" stroke="black" points="1049.7,-615.947 1055.87,-607.337 1045.68,-610.217 1049.7,-615.947"/>
</g>
<!-- g411_53 -->
<g id="node19" class="node"><title>g411_53</title>
<polygon fill="none" stroke="black" points="836.25,-507 703.75,-507 703.75,-459 836.25,-459 836.25,-507"/>
<text text-anchor="start" x="761" y="-496" font-family="Times,serif" font-weight="bold" font-size="10.00">goal</text>
<text text-anchor="start" x="711.5" y="-486" font-family="Times,serif" font-size="10.00"> TSN switches and endpoints</text>
<text text-anchor="start" x="720.5" y="-476" font-family="Times,serif" font-size="10.00"> cards have fault tolerant</text>
<text text-anchor="start" x="755.5" y="-466" font-family="Times,serif" font-size="10.00"> design</text>
</g>
<!-- g41_52&#45;&gt;g411_53 -->
<g id="edge18" class="edge"><title>g41_52&#45;&gt;g411_53</title>
<path fill="none" stroke="black" d="M885.561,-563.885C863.706,-548.777 834.995,-528.929 811.659,-512.798"/>
<polygon fill="black" stroke="black" points="813.543,-509.845 803.327,-507.038 809.563,-515.604 813.543,-509.845"/>
</g>
<!-- g412_57 -->
<g id="node26" class="node"><title>g412_57</title>
<polygon fill="none" stroke="black" points="979.25,-507 858.75,-507 858.75,-459 979.25,-459 979.25,-507"/>
<text text-anchor="start" x="910" y="-496" font-family="Times,serif" font-weight="bold" font-size="10.00">goal</text>
<text text-anchor="start" x="866.5" y="-486" font-family="Times,serif" font-size="10.00"> Analysis of TSN network</text>
<text text-anchor="start" x="868" y="-476" font-family="Times,serif" font-size="10.00"> demonstrates sufficiency</text>
<text text-anchor="start" x="872.5" y="-466" font-family="Times,serif" font-size="10.00"> of TSN fault tolerance</text>
</g>
<!-- g41_52&#45;&gt;g412_57 -->
<g id="edge25" class="edge"><title>g41_52&#45;&gt;g412_57</title>
<path fill="none" stroke="black" d="M919,-563.885C919,-550.102 919,-532.375 919,-517.123"/>
<polygon fill="black" stroke="black" points="922.5,-517.038 919,-507.038 915.5,-517.038 922.5,-517.038"/>
</g>
<!-- g4111_54 -->
<g id="node20" class="node"><title>g4111_54</title>
<polygon fill="none" stroke="black" points="687,-386 573,-386 573,-348 687,-348 687,-386"/>
<text text-anchor="start" x="621" y="-375" font-family="Times,serif" font-weight="bold" font-size="10.00">goal</text>
<text text-anchor="start" x="581" y="-365" font-family="Times,serif" font-size="10.00"> Incorrect frames cannot</text>
<text text-anchor="start" x="603" y="-355" font-family="Times,serif" font-size="10.00"> be generated</text>
</g>
<!-- g411_53&#45;&gt;g4111_54 -->
<g id="edge19" class="edge"><title>g411_53&#45;&gt;g4111_54</title>
<path fill="none" stroke="black" d="M741.669,-458.93C717.98,-439.641 684.281,-412.2 660.109,-392.517"/>
<polygon fill="black" stroke="black" points="662.269,-389.762 652.304,-386.162 657.849,-395.19 662.269,-389.762"/>
</g>
<!-- g4112_56 -->
<g id="node24" class="node"><title>g4112_56</title>
<polygon fill="none" stroke="black" points="831.25,-391 708.75,-391 708.75,-343 831.25,-343 831.25,-391"/>
<text text-anchor="start" x="761" y="-380" font-family="Times,serif" font-weight="bold" font-size="10.00">goal</text>
<text text-anchor="start" x="731.5" y="-370" font-family="Times,serif" font-size="10.00"> The availability of</text>
<text text-anchor="start" x="716.5" y="-360" font-family="Times,serif" font-size="10.00"> frames is ensured through</text>
<text text-anchor="start" x="735.5" y="-350" font-family="Times,serif" font-size="10.00"> path redundancy</text>
</g>
<!-- g411_53&#45;&gt;g4112_56 -->
<g id="edge23" class="edge"><title>g411_53&#45;&gt;g4112_56</title>
<path fill="none" stroke="black" d="M770,-458.93C770,-442.32 770,-419.664 770,-401.123"/>
<polygon fill="black" stroke="black" points="773.5,-401.035 770,-391.035 766.5,-401.035 773.5,-401.035"/>
</g>
<!-- g41111_55 -->
<g id="node21" class="node"><title>g41111_55</title>
<polygon fill="none" stroke="black" points="682.25,-275 565.75,-275 565.75,-237 682.25,-237 682.25,-275"/>
<text text-anchor="start" x="615" y="-264" font-family="Times,serif" font-weight="bold" font-size="10.00">goal</text>
<text text-anchor="start" x="581" y="-254" font-family="Times,serif" font-size="10.00"> All faulty frames are</text>
<text text-anchor="start" x="573.5" y="-244" font-family="Times,serif" font-size="10.00"> intercepted by a monitor</text>
</g>
<!-- g4111_54&#45;&gt;g41111_55 -->
<g id="edge20" class="edge"><title>g4111_54&#45;&gt;g41111_55</title>
<path fill="none" stroke="black" d="M628.982,-347.51C628.046,-330.495 626.643,-305.006 625.564,-285.408"/>
<polygon fill="black" stroke="black" points="629.047,-285.01 625.003,-275.217 622.058,-285.395 629.047,-285.01"/>
</g>
<!-- evidence_8 -->
<g id="node22" class="node"><title>evidence_8</title>
<ellipse fill="none" stroke="blue" cx="545" cy="-145" rx="68.9457" ry="33.8824"/>
<text text-anchor="start" x="524.5" y="-158" font-family="Times,serif" font-weight="bold" font-size="10.00">unknown</text>
<text text-anchor="start" x="505.5" y="-148" font-family="Times,serif" font-size="10.00"> TSN high integrity</text>
<text text-anchor="start" x="516" y="-138" font-family="Times,serif" font-size="10.00"> switch design</text>
<text text-anchor="start" x="504" y="-128" font-family="Times,serif" font-size="10.00">pending xref: 10015</text>
</g>
<!-- g41111_55&#45;&gt;evidence_8 -->
<g id="edge21" class="edge"><title>g41111_55&#45;&gt;evidence_8</title>
<path fill="none" stroke="black" d="M610.599,-236.51C600.536,-222.625 586.382,-203.097 573.797,-185.732"/>
<polygon fill="black" stroke="black" points="576.471,-183.458 567.769,-177.415 570.803,-187.566 576.471,-183.458"/>
</g>
<!-- evidence_9 -->
<g id="node23" class="node"><title>evidence_9</title>
<ellipse fill="none" stroke="blue" cx="704" cy="-145" rx="72.1874" ry="41.0244"/>
<text text-anchor="start" x="683.5" y="-163" font-family="Times,serif" font-weight="bold" font-size="10.00">unknown</text>
<text text-anchor="start" x="664.5" y="-153" font-family="Times,serif" font-size="10.00"> TSN high integrity</text>
<text text-anchor="start" x="661" y="-143" font-family="Times,serif" font-size="10.00"> endpoint card design</text>
<text text-anchor="start" x="663" y="-123" font-family="Times,serif" font-size="10.00">pending xref: 10016</text>
</g>
<!-- g41111_55&#45;&gt;evidence_9 -->
<g id="edge22" class="edge"><title>g41111_55&#45;&gt;evidence_9</title>
<path fill="none" stroke="black" d="M637.571,-236.51C646.682,-224.096 659.104,-207.171 670.741,-191.315"/>
<polygon fill="black" stroke="black" points="673.639,-193.282 676.734,-183.15 667.996,-189.14 673.639,-193.282"/>
</g>
<!-- evidence_10 -->
<g id="node25" class="node"><title>evidence_10</title>
<ellipse fill="none" stroke="blue" cx="773" cy="-256" rx="72.1874" ry="33.8824"/>
<text text-anchor="start" x="752.5" y="-269" font-family="Times,serif" font-weight="bold" font-size="10.00">unknown</text>
<text text-anchor="start" x="730" y="-259" font-family="Times,serif" font-size="10.00"> TSN network design</text>
<text text-anchor="start" x="732" y="-239" font-family="Times,serif" font-size="10.00">pending xref: 10017</text>
</g>
<!-- g4112_56&#45;&gt;evidence_10 -->
<g id="edge24" class="edge"><title>g4112_56&#45;&gt;evidence_10</title>
<path fill="none" stroke="black" d="M770.636,-342.884C770.977,-330.513 771.407,-314.87 771.807,-300.335"/>
<polygon fill="black" stroke="black" points="775.315,-300.101 772.092,-290.009 768.318,-299.909 775.315,-300.101"/>
</g>
<!-- evidence_11 -->
<g id="node27" class="node"><title>evidence_11</title>
<ellipse fill="none" stroke="blue" cx="919" cy="-367" rx="68.9457" ry="41.0244"/>
<text text-anchor="start" x="898.5" y="-385" font-family="Times,serif" font-weight="bold" font-size="10.00">unknown</text>
<text text-anchor="start" x="879.5" y="-375" font-family="Times,serif" font-size="10.00"> Results of network</text>
<text text-anchor="start" x="883" y="-365" font-family="Times,serif" font-size="10.00"> fault propagation</text>
<text text-anchor="start" x="901.5" y="-355" font-family="Times,serif" font-size="10.00"> analysis</text>
<text text-anchor="start" x="878" y="-345" font-family="Times,serif" font-size="10.00">pending xref: 10018</text>
</g>
<!-- g412_57&#45;&gt;evidence_11 -->
<g id="edge26" class="edge"><title>g412_57&#45;&gt;evidence_11</title>
<path fill="none" stroke="black" d="M919,-458.93C919,-447.203 919,-432.463 919,-418.285"/>
<polygon fill="black" stroke="black" points="922.5,-418.112 919,-408.112 915.5,-418.112 922.5,-418.112"/>
</g>
<!-- g421_59 -->
<g id="node29" class="node"><title>g421_59</title>
<polygon fill="none" stroke="black" points="1185,-512 1087,-512 1087,-454 1185,-454 1185,-512"/>
<text text-anchor="start" x="1127" y="-501" font-family="Times,serif" font-weight="bold" font-size="10.00">goal</text>
<text text-anchor="start" x="1097" y="-491" font-family="Times,serif" font-size="10.00"> Synchronized time</text>
<text text-anchor="start" x="1095" y="-481" font-family="Times,serif" font-size="10.00"> is maintained in the</text>
<text text-anchor="start" x="1095" y="-471" font-family="Times,serif" font-size="10.00"> network even in the</text>
<text text-anchor="start" x="1095.5" y="-461" font-family="Times,serif" font-size="10.00"> presence of failures</text>
</g>
<!-- g42_58&#45;&gt;g421_59 -->
<g id="edge28" class="edge"><title>g42_58&#45;&gt;g421_59</title>
<path fill="none" stroke="black" d="M1091.65,-568.586C1098.5,-555.526 1107.93,-537.543 1116.33,-521.515"/>
<polygon fill="black" stroke="black" points="1119.59,-522.838 1121.13,-512.356 1113.39,-519.587 1119.59,-522.838"/>
</g>
<!-- strategy_12 -->
<g id="node30" class="node"><title>strategy_12</title>
<polygon fill="none" stroke="black" points="1321.38,-397 1071.02,-397 1006.62,-337 1256.98,-337 1321.38,-397"/>
<text text-anchor="start" x="1146.5" y="-375" font-family="Times,serif" font-weight="bold" font-size="10.00">strategy</text>
<text text-anchor="start" x="1088" y="-365" font-family="Times,serif" font-size="10.00"> Argument over TSN synchronization</text>
<text text-anchor="start" x="1144" y="-355" font-family="Times,serif" font-size="10.00"> protocols</text>
</g>
<!-- g421_59&#45;&gt;strategy_12 -->
<g id="edge29" class="edge"><title>g421_59&#45;&gt;strategy_12</title>
<path fill="none" stroke="black" d="M1142.92,-453.82C1146.4,-439.649 1150.67,-422.253 1154.46,-406.837"/>
<polygon fill="black" stroke="black" points="1157.88,-407.592 1156.87,-397.046 1151.08,-405.922 1157.88,-407.592"/>
</g>
<!-- g4211_60 -->
<g id="node31" class="node"><title>g4211_60</title>
<polygon fill="none" stroke="black" points="1056,-280 908,-280 908,-232 1056,-232 1056,-280"/>
<text text-anchor="start" x="973" y="-269" font-family="Times,serif" font-weight="bold" font-size="10.00">goal</text>
<text text-anchor="start" x="938" y="-259" font-family="Times,serif" font-size="10.00"> Permanence function</text>
<text text-anchor="start" x="940.5" y="-249" font-family="Times,serif" font-size="10.00"> ensures local clocks</text>
<text text-anchor="start" x="916" y="-239" font-family="Times,serif" font-size="10.00"> of components are synchronised</text>
</g>
<!-- strategy_12&#45;&gt;g4211_60 -->
<g id="edge30" class="edge"><title>strategy_12&#45;&gt;g4211_60</title>
<path fill="none" stroke="black" d="M1115.23,-336.79C1088.55,-320.813 1055.65,-301.11 1029.22,-285.281"/>
<polygon fill="black" stroke="black" points="1030.9,-282.208 1020.52,-280.072 1027.31,-288.213 1030.9,-282.208"/>
</g>
<!-- g4212_61 -->
<g id="node33" class="node"><title>g4212_61</title>
<polygon fill="none" stroke="black" points="1234,-280 1094,-280 1094,-232 1234,-232 1234,-280"/>
<text text-anchor="start" x="1155" y="-269" font-family="Times,serif" font-weight="bold" font-size="10.00">goal</text>
<text text-anchor="start" x="1117" y="-259" font-family="Times,serif" font-size="10.00"> Clock&#45;synchronisation</text>
<text text-anchor="start" x="1102" y="-249" font-family="Times,serif" font-size="10.00"> protocol ensures synchronised</text>
<text text-anchor="start" x="1112" y="-239" font-family="Times,serif" font-size="10.00"> global time is maintained</text>
</g>
<!-- strategy_12&#45;&gt;g4212_61 -->
<g id="edge32" class="edge"><title>strategy_12&#45;&gt;g4212_61</title>
<path fill="none" stroke="black" d="M1164,-336.79C1164,-322.48 1164,-305.181 1164,-290.354"/>
<polygon fill="black" stroke="black" points="1167.5,-290.072 1164,-280.072 1160.5,-290.072 1167.5,-290.072"/>
</g>
<!-- g4213_62 -->
<g id="node35" class="node"><title>g4213_62</title>
<polygon fill="none" stroke="black" points="1389,-290 1271,-290 1271,-222 1389,-222 1389,-290"/>
<text text-anchor="start" x="1321" y="-279" font-family="Times,serif" font-weight="bold" font-size="10.00">goal</text>
<text text-anchor="start" x="1282" y="-269" font-family="Times,serif" font-size="10.00"> Precision of the system</text>
<text text-anchor="start" x="1279" y="-259" font-family="Times,serif" font-size="10.00"> is improved by detecting</text>
<text text-anchor="start" x="1288" y="-249" font-family="Times,serif" font-size="10.00"> and removing faulty</text>
<text text-anchor="start" x="1280" y="-239" font-family="Times,serif" font-size="10.00"> TSN devices from clock</text>
<text text-anchor="start" x="1297" y="-229" font-family="Times,serif" font-size="10.00"> synchronisation</text>
</g>
<!-- strategy_12&#45;&gt;g4213_62 -->
<g id="edge34" class="edge"><title>strategy_12&#45;&gt;g4213_62</title>
<path fill="none" stroke="black" d="M1208.48,-336.79C1227.73,-324.153 1250.52,-309.186 1271.14,-295.647"/>
<polygon fill="black" stroke="black" points="1273.09,-298.557 1279.53,-290.143 1269.25,-292.706 1273.09,-298.557"/>
</g>
<!-- evidence_13 -->
<g id="node32" class="node"><title>evidence_13</title>
<ellipse fill="none" stroke="blue" cx="962" cy="-145" rx="77.1743" ry="41.0244"/>
<text text-anchor="start" x="941.5" y="-163" font-family="Times,serif" font-weight="bold" font-size="10.00">unknown</text>
<text text-anchor="start" x="922" y="-153" font-family="Times,serif" font-size="10.00"> Formal verification</text>
<text text-anchor="start" x="915" y="-143" font-family="Times,serif" font-size="10.00"> results for permanence</text>
<text text-anchor="start" x="944" y="-133" font-family="Times,serif" font-size="10.00"> function</text>
<text text-anchor="start" x="921" y="-123" font-family="Times,serif" font-size="10.00">pending xref: 10019</text>
</g>
<!-- g4211_60&#45;&gt;evidence_13 -->
<g id="edge31" class="edge"><title>g4211_60&#45;&gt;evidence_13</title>
<path fill="none" stroke="black" d="M977.759,-231.884C975.84,-221.43 973.493,-208.639 971.203,-196.155"/>
<polygon fill="black" stroke="black" points="974.634,-195.463 969.387,-186.259 967.749,-196.726 974.634,-195.463"/>
</g>
<!-- evidence_14 -->
<g id="node34" class="node"><title>evidence_14</title>
<ellipse fill="none" stroke="blue" cx="1164" cy="-145" rx="106.099" ry="41.0244"/>
<text text-anchor="start" x="1143.5" y="-163" font-family="Times,serif" font-weight="bold" font-size="10.00">unknown</text>
<text text-anchor="start" x="1124" y="-153" font-family="Times,serif" font-size="10.00"> Formal verification</text>
<text text-anchor="start" x="1097" y="-143" font-family="Times,serif" font-size="10.00"> results for clock synchronization</text>
<text text-anchor="start" x="1123" y="-123" font-family="Times,serif" font-size="10.00">pending xref: 10020</text>
</g>
<!-- g4212_61&#45;&gt;evidence_14 -->
<g id="edge33" class="edge"><title>g4212_61&#45;&gt;evidence_14</title>
<path fill="none" stroke="black" d="M1164,-231.884C1164,-221.534 1164,-208.893 1164,-196.526"/>
<polygon fill="black" stroke="black" points="1167.5,-196.259 1164,-186.259 1160.5,-196.259 1167.5,-196.259"/>
</g>
<!-- g42131_63 -->
<g id="node36" class="node"><title>g42131_63</title>
<polygon fill="none" stroke="black" points="1410,-169 1288,-169 1288,-121 1410,-121 1410,-169"/>
<text text-anchor="start" x="1340" y="-158" font-family="Times,serif" font-weight="bold" font-size="10.00">goal</text>
<text text-anchor="start" x="1296" y="-148" font-family="Times,serif" font-size="10.00"> Verification demonstrates</text>
<text text-anchor="start" x="1307" y="-138" font-family="Times,serif" font-size="10.00"> the bound of overall</text>
<text text-anchor="start" x="1329" y="-128" font-family="Times,serif" font-size="10.00"> precision</text>
</g>
<!-- g4213_62&#45;&gt;g42131_63 -->
<g id="edge35" class="edge"><title>g4213_62&#45;&gt;g42131_63</title>
<path fill="none" stroke="black" d="M1335.8,-221.704C1338.17,-208.134 1340.9,-192.486 1343.26,-178.951"/>
<polygon fill="black" stroke="black" points="1346.71,-179.535 1344.98,-169.083 1339.81,-178.333 1346.71,-179.535"/>
</g>
<!-- evidence_15 -->
<g id="node37" class="node"><title>evidence_15</title>
<ellipse fill="none" stroke="blue" cx="1349" cy="-34" rx="68.9457" ry="33.8824"/>
<text text-anchor="start" x="1328.5" y="-47" font-family="Times,serif" font-weight="bold" font-size="10.00">unknown</text>
<text text-anchor="start" x="1309.5" y="-37" font-family="Times,serif" font-size="10.00"> Verification results</text>
<text text-anchor="start" x="1308" y="-17" font-family="Times,serif" font-size="10.00">pending xref: 10021</text>
</g>
<!-- g42131_63&#45;&gt;evidence_15 -->
<g id="edge36" class="edge"><title>g42131_63&#45;&gt;evidence_15</title>
<path fill="none" stroke="black" d="M1349,-120.884C1349,-108.513 1349,-92.8705 1349,-78.3347"/>
<polygon fill="black" stroke="black" points="1352.5,-78.0086 1349,-68.0086 1345.5,-78.0087 1352.5,-78.0086"/>
</g>
</g>
</svg>
